<?xml version="1.0" encoding="UTF-8" standalone="no"?>
<!DOCTYPE svg PUBLIC "-//W3C//DTD SVG 1.1//EN" "http://www.w3.org/Graphics/SVG/1.1/DTD/svg11.dtd">
<svg xmlns="http://www.w3.org/2000/svg"  version="1.1" width="715.0" height="406.0" viewBox="-6.0 -13.0 709.0 393.0">
	<desc>LSD Plot - r3_sector_co2_impostos</desc>
	<polyline points="226.0,6.0 226.0,304.0" fill="none" stroke="#f0f0f0" />
	<polyline points="376.0,6.0 376.0,304.0" fill="none" stroke="#f0f0f0" />
	<polyline points="526.0,6.0 526.0,304.0" fill="none" stroke="#f0f0f0" />
	<polyline points="77.0,80.0 675.0,80.0" fill="none" stroke="#f0f0f0" />
	<polyline points="77.0,155.0 675.0,155.0" fill="none" stroke="#f0f0f0" />
	<polyline points="77.0,230.0 675.0,230.0" fill="none" stroke="#f0f0f0" />
	<text x="5.0" y="353.0" font-family="Arial" font-size="9pt">Sector_Total_Tax_CO2_Emissions_1_1_1</text>
	<text x="289.0" y="353.0" fill="#ff0000" font-family="Arial" font-size="9pt">Sector_Total_Tax_CO2_Emissions_1_1_2</text>
	<text x="5.0" y="370.0" fill="#008000" font-family="Arial" font-size="9pt">Sector_Total_Tax_CO2_Emissions_1_1_3</text>
	<polyline points="76.0,284.0 77.0,284.0 78.0,282.0 79.0,279.0 80.0,279.0 81.0,278.0 82.0,278.0 83.0,281.0 84.0,281.0 85.0,281.0 86.0,282.0 87.0,282.0 88.0,282.0 89.0,284.0 90.0,284.0 91.0,282.0 92.0,282.0 93.0,282.0 94.0,285.0 95.0,282.0 96.0,281.0 97.0,279.0 98.0,278.0 99.0,277.0 100.0,277.0 101.0,278.0 102.0,272.0 103.0,273.0 104.0,270.0 105.0,268.0 106.0,265.0 107.0,266.0 108.0,266.0 109.0,267.0 110.0,267.0 111.0,267.0 112.0,268.0 113.0,268.0 114.0,268.0 115.0,268.0 116.0,269.0 117.0,266.0 118.0,266.0 119.0,266.0 120.0,266.0 121.0,264.0 122.0,258.0 123.0,262.0 124.0,254.0 125.0,256.0 126.0,254.0 127.0,254.0 128.0,255.0 129.0,255.0 130.0,256.0 131.0,256.0 132.0,256.0 133.0,254.0 134.0,254.0 135.0,254.0 136.0,254.0 137.0,255.0 138.0,255.0 139.0,255.0 140.0,252.0 141.0,254.0 142.0,250.0 143.0,248.0 144.0,246.0 145.0,241.0 146.0,246.0 147.0,248.0 148.0,248.0 149.0,243.0 150.0,248.0 151.0,251.0 152.0,251.0 153.0,253.0 154.0,256.0 155.0,253.0 156.0,259.0 157.0,258.0 158.0,264.0 159.0,261.0 160.0,264.0 161.0,248.0 162.0,247.0 163.0,247.0 164.0,252.0 165.0,246.0 166.0,243.0 167.0,248.0 168.0,246.0 169.0,244.0 170.0,242.0 171.0,245.0 172.0,241.0 173.0,241.0 174.0,240.0 175.0,238.0 176.0,235.0 177.0,240.0 178.0,233.0 179.0,233.0 180.0,235.0 181.0,235.0 182.0,236.0 183.0,237.0 184.0,231.0 185.0,232.0 186.0,230.0 187.0,232.0 188.0,229.0 189.0,230.0 190.0,227.0 191.0,227.0 192.0,229.0 193.0,227.0 194.0,229.0 195.0,228.0 196.0,230.0 197.0,229.0 198.0,231.0 199.0,230.0 200.0,230.0 201.0,230.0 202.0,232.0 203.0,235.0 204.0,235.0 205.0,237.0 206.0,229.0 207.0,235.0 208.0,236.0 209.0,238.0 210.0,238.0 211.0,239.0 212.0,244.0 213.0,249.0 214.0,243.0 215.0,243.0 216.0,246.0 217.0,251.0 218.0,256.0 219.0,255.0 220.0,254.0 221.0,248.0 222.0,258.0 223.0,258.0 224.0,254.0 225.0,249.0 226.0,260.0 227.0,254.0 228.0,258.0 229.0,268.0 230.0,266.0 231.0,253.0 232.0,258.0 233.0,249.0 234.0,248.0 235.0,248.0 236.0,251.0 237.0,247.0 238.0,249.0 239.0,247.0 240.0,245.0 241.0,243.0 242.0,237.0 243.0,238.0 244.0,238.0 245.0,238.0 246.0,236.0 247.0,232.0 248.0,229.0 249.0,229.0 250.0,229.0 251.0,230.0 252.0,230.0 253.0,231.0 254.0,231.0 255.0,232.0 256.0,232.0 257.0,232.0 258.0,233.0 259.0,233.0 260.0,232.0 261.0,231.0 262.0,231.0 263.0,231.0 264.0,229.0 265.0,229.0 266.0,229.0 267.0,226.0 268.0,226.0 269.0,227.0 270.0,227.0 271.0,226.0 272.0,225.0 273.0,225.0 274.0,219.0 275.0,219.0 276.0,222.0 277.0,224.0 278.0,231.0 279.0,232.0 280.0,223.0 281.0,224.0 282.0,223.0 283.0,220.0 284.0,220.0 285.0,219.0 286.0,217.0 287.0,216.0 288.0,221.0 289.0,223.0 290.0,218.0 291.0,220.0 292.0,235.0 293.0,232.0 294.0,220.0 295.0,217.0 296.0,216.0 297.0,204.0 298.0,210.0 299.0,207.0 300.0,208.0 301.0,213.0 302.0,211.0 303.0,209.0 304.0,201.0 305.0,206.0 306.0,199.0 307.0,198.0 308.0,197.0 309.0,198.0 310.0,197.0 311.0,197.0 312.0,197.0 313.0,198.0 314.0,198.0 315.0,199.0 316.0,200.0 317.0,200.0 318.0,198.0 319.0,201.0 320.0,198.0 321.0,199.0 322.0,199.0 323.0,200.0 324.0,200.0 325.0,200.0 326.0,201.0 327.0,201.0 328.0,201.0 329.0,202.0 330.0,202.0 331.0,202.0 332.0,203.0 333.0,202.0 334.0,203.0 335.0,201.0 336.0,198.0 337.0,200.0 338.0,200.0 339.0,197.0 340.0,198.0 341.0,197.0 342.0,198.0 343.0,198.0 344.0,197.0 345.0,195.0 346.0,196.0 347.0,206.0 348.0,204.0 349.0,201.0 350.0,209.0 351.0,207.0 352.0,204.0 353.0,203.0 354.0,198.0 355.0,206.0 356.0,212.0 357.0,212.0 358.0,218.0 359.0,228.0 360.0,232.0 361.0,234.0 362.0,240.0 363.0,227.0 364.0,217.0 365.0,223.0 366.0,210.0 367.0,209.0 368.0,200.0 369.0,194.0 370.0,189.0 371.0,188.0 372.0,189.0 373.0,185.0 374.0,180.0 375.0,181.0 376.0,179.0 377.0,180.0 378.0,181.0 379.0,182.0 380.0,183.0 381.0,184.0 382.0,185.0 383.0,186.0 384.0,186.0 385.0,187.0 386.0,184.0 387.0,185.0 388.0,186.0 389.0,183.0 390.0,184.0 391.0,184.0 392.0,185.0 393.0,184.0 394.0,185.0 395.0,184.0 396.0,185.0 397.0,185.0 398.0,185.0 399.0,186.0 400.0,186.0 401.0,187.0 402.0,187.0 403.0,187.0 404.0,187.0 405.0,185.0 406.0,183.0 407.0,184.0 408.0,179.0 409.0,180.0 410.0,180.0 411.0,185.0 412.0,184.0 413.0,183.0 414.0,182.0 415.0,180.0 416.0,179.0 417.0,199.0 418.0,203.0 419.0,209.0 420.0,211.0 421.0,208.0 422.0,209.0 423.0,215.0 424.0,215.0 425.0,213.0 426.0,211.0 427.0,203.0 428.0,203.0 429.0,201.0 430.0,197.0 431.0,192.0 432.0,189.0 433.0,183.0 434.0,178.0 435.0,169.0 436.0,168.0 437.0,163.0 438.0,165.0 439.0,165.0 440.0,157.0 441.0,158.0 442.0,155.0 443.0,155.0 444.0,154.0 445.0,155.0 446.0,156.0 447.0,157.0 448.0,158.0 449.0,159.0 450.0,161.0 451.0,159.0 452.0,161.0 453.0,161.0 454.0,162.0 455.0,162.0 456.0,164.0 457.0,163.0 458.0,165.0 459.0,164.0 460.0,166.0 461.0,166.0 462.0,167.0 463.0,166.0 464.0,167.0 465.0,165.0 466.0,164.0 467.0,164.0 468.0,163.0 469.0,162.0 470.0,163.0 471.0,163.0 472.0,162.0 473.0,166.0 474.0,164.0 475.0,165.0 476.0,164.0 477.0,160.0 478.0,151.0 479.0,153.0 480.0,151.0 481.0,149.0 482.0,150.0 483.0,165.0 484.0,163.0 485.0,161.0 486.0,160.0 487.0,170.0 488.0,181.0 489.0,169.0 490.0,180.0 491.0,179.0 492.0,177.0 493.0,175.0 494.0,182.0 495.0,179.0 496.0,170.0 497.0,168.0 498.0,169.0 499.0,158.0 500.0,147.0 501.0,145.0 502.0,133.0 503.0,134.0 504.0,136.0 505.0,138.0 506.0,137.0 507.0,138.0 508.0,135.0 509.0,137.0 510.0,138.0 511.0,139.0 512.0,138.0 513.0,139.0 514.0,140.0 515.0,141.0 516.0,142.0 517.0,143.0 518.0,144.0 519.0,142.0 520.0,137.0 521.0,143.0 522.0,130.0 523.0,127.0 524.0,126.0 525.0,123.0 526.0,121.0 527.0,121.0 528.0,119.0 529.0,120.0 530.0,120.0 531.0,118.0 532.0,119.0 533.0,118.0 534.0,119.0 535.0,119.0 536.0,120.0 537.0,118.0 538.0,122.0 539.0,137.0 540.0,133.0 541.0,135.0 542.0,133.0 543.0,135.0 544.0,131.0 545.0,129.0 546.0,127.0 547.0,124.0 548.0,123.0 549.0,120.0 550.0,115.0 551.0,110.0 552.0,109.0 553.0,107.0 554.0,108.0 555.0,106.0 556.0,96.0 557.0,97.0 558.0,94.0 559.0,101.0 560.0,86.0 561.0,90.0 562.0,83.0 563.0,84.0 564.0,81.0 565.0,89.0 566.0,79.0 567.0,86.0 568.0,83.0 569.0,83.0 570.0,87.0 571.0,90.0 572.0,88.0 573.0,82.0 574.0,72.0 575.0,71.0 576.0,69.0 577.0,73.0 578.0,74.0 579.0,75.0 580.0,75.0 581.0,79.0 582.0,79.0 583.0,82.0 584.0,82.0 585.0,84.0 586.0,85.0 587.0,86.0 588.0,86.0 589.0,86.0 590.0,88.0 591.0,88.0 592.0,87.0 593.0,90.0 594.0,89.0 595.0,91.0 596.0,89.0 597.0,92.0 598.0,91.0 599.0,91.0 600.0,91.0 601.0,90.0 602.0,91.0 603.0,89.0 604.0,91.0 605.0,92.0 606.0,93.0 607.0,92.0 608.0,90.0 609.0,86.0 610.0,85.0 611.0,81.0 612.0,79.0 613.0,78.0 614.0,74.0 615.0,72.0 616.0,71.0 617.0,69.0 618.0,68.0 619.0,61.0 620.0,62.0 621.0,37.0 622.0,52.0 623.0,15.0 624.0,23.0 625.0,13.0 626.0,18.0 627.0,10.0 628.0,13.0 629.0,10.0 630.0,9.0 631.0,11.0 632.0,9.0 633.0,20.0 634.0,50.0 635.0,34.0 636.0,22.0 637.0,24.0 638.0,27.0 639.0,30.0 640.0,33.0 641.0,35.0 642.0,37.0 643.0,39.0 644.0,41.0 645.0,42.0 646.0,44.0 647.0,45.0 648.0,47.0 649.0,48.0 650.0,49.0 651.0,50.0 652.0,52.0 653.0,53.0 654.0,54.0 655.0,55.0 656.0,56.0 657.0,57.0 658.0,58.0 659.0,59.0 660.0,59.0 661.0,60.0 662.0,61.0 663.0,62.0 664.0,62.0 665.0,63.0 666.0,63.0 667.0,63.0 668.0,64.0 669.0,64.0 670.0,59.0 671.0,55.0 672.0,53.0 673.0,52.0 674.0,50.0 675.0,47.0" fill="none" stroke="#000000" />
	<polyline points="76.0,304.0 77.0,305.0 78.0,305.0 79.0,305.0 80.0,305.0 81.0,305.0 82.0,305.0 83.0,305.0 84.0,305.0 85.0,305.0 86.0,305.0 87.0,305.0 88.0,302.0 89.0,303.0 90.0,303.0 91.0,303.0 92.0,304.0 93.0,304.0 94.0,301.0 95.0,294.0 96.0,294.0 97.0,290.0 98.0,292.0 99.0,286.0 100.0,288.0 101.0,289.0 102.0,290.0 103.0,292.0 104.0,295.0 105.0,293.0 106.0,297.0 107.0,296.0 108.0,299.0 109.0,299.0 110.0,297.0 111.0,296.0 112.0,294.0 113.0,292.0 114.0,291.0 115.0,290.0 116.0,293.0 117.0,296.0 118.0,295.0 119.0,299.0 120.0,299.0 121.0,299.0 122.0,300.0 123.0,298.0 124.0,301.0 125.0,301.0 126.0,302.0 127.0,302.0 128.0,302.0 129.0,304.0 130.0,304.0 131.0,303.0 132.0,301.0 133.0,298.0 134.0,297.0 135.0,296.0 136.0,295.0 137.0,296.0 138.0,286.0 139.0,291.0 140.0,298.0 141.0,298.0 142.0,298.0 143.0,298.0 144.0,298.0 145.0,294.0 146.0,291.0 147.0,290.0 148.0,289.0 149.0,291.0 150.0,293.0 151.0,301.0 152.0,298.0 153.0,293.0 154.0,292.0 155.0,292.0 156.0,292.0 157.0,293.0 158.0,285.0 159.0,283.0 160.0,286.0 161.0,287.0 162.0,284.0 163.0,287.0 164.0,288.0 165.0,286.0 166.0,290.0 167.0,294.0 168.0,292.0 169.0,290.0 170.0,285.0 171.0,284.0 172.0,286.0 173.0,287.0 174.0,291.0 175.0,294.0 176.0,301.0 177.0,302.0 178.0,302.0 179.0,304.0 180.0,300.0 181.0,302.0 182.0,301.0 183.0,300.0 184.0,301.0 185.0,301.0 186.0,304.0 187.0,304.0 188.0,304.0 189.0,305.0 190.0,305.0 191.0,305.0 192.0,304.0 193.0,302.0 194.0,302.0 195.0,301.0 196.0,301.0 197.0,301.0 198.0,285.0 199.0,286.0 200.0,284.0 201.0,284.0 202.0,284.0 203.0,282.0 204.0,284.0 205.0,284.0 206.0,284.0 207.0,286.0 208.0,285.0 209.0,287.0 210.0,281.0 211.0,291.0 212.0,295.0 213.0,292.0 214.0,291.0 215.0,291.0 216.0,291.0 217.0,287.0 218.0,286.0 219.0,287.0 220.0,289.0 221.0,289.0 222.0,287.0 223.0,285.0 224.0,284.0 225.0,282.0 226.0,279.0 227.0,281.0 228.0,280.0 229.0,282.0 230.0,283.0 231.0,284.0 232.0,287.0 233.0,288.0 234.0,291.0 235.0,294.0 236.0,302.0 237.0,303.0 238.0,304.0 239.0,305.0 240.0,303.0 241.0,303.0 242.0,303.0 243.0,302.0 244.0,302.0 245.0,302.0 246.0,303.0 247.0,304.0 248.0,304.0 249.0,305.0 250.0,305.0 251.0,305.0 252.0,304.0 253.0,304.0 254.0,304.0 255.0,304.0 256.0,302.0 257.0,302.0 258.0,303.0 259.0,299.0 260.0,296.0 261.0,295.0 262.0,295.0 263.0,295.0 264.0,295.0 265.0,298.0 266.0,299.0 267.0,300.0 268.0,301.0 269.0,301.0 270.0,288.0 271.0,275.0 272.0,283.0 273.0,285.0 274.0,285.0 275.0,285.0 276.0,285.0 277.0,282.0 278.0,280.0 279.0,282.0 280.0,280.0 281.0,281.0 282.0,283.0 283.0,282.0 284.0,287.0 285.0,279.0 286.0,281.0 287.0,281.0 288.0,281.0 289.0,281.0 290.0,282.0 291.0,287.0 292.0,287.0 293.0,287.0 294.0,282.0 295.0,281.0 296.0,282.0 297.0,289.0 298.0,293.0 299.0,298.0 300.0,300.0 301.0,301.0 302.0,302.0 303.0,301.0 304.0,301.0 305.0,302.0 306.0,303.0 307.0,304.0 308.0,304.0 309.0,305.0 310.0,305.0 311.0,305.0 312.0,304.0 313.0,304.0 314.0,304.0 315.0,304.0 316.0,303.0 317.0,303.0 318.0,304.0 319.0,304.0 320.0,303.0 321.0,303.0 322.0,303.0 323.0,303.0 324.0,303.0 325.0,303.0 326.0,304.0 327.0,304.0 328.0,304.0 329.0,304.0 330.0,300.0 331.0,282.0 332.0,281.0 333.0,283.0 334.0,283.0 335.0,286.0 336.0,285.0 337.0,281.0 338.0,288.0 339.0,287.0 340.0,283.0 341.0,283.0 342.0,286.0 343.0,286.0 344.0,303.0 345.0,303.0 346.0,300.0 347.0,300.0 348.0,300.0 349.0,298.0 350.0,296.0 351.0,293.0 352.0,293.0 353.0,295.0 354.0,296.0 355.0,293.0 356.0,296.0 357.0,295.0 358.0,293.0 359.0,294.0 360.0,283.0 361.0,284.0 362.0,277.0 363.0,280.0 364.0,280.0 365.0,284.0 366.0,297.0 367.0,299.0 368.0,302.0 369.0,303.0 370.0,303.0 371.0,303.0 372.0,303.0 373.0,303.0 374.0,303.0 375.0,304.0 376.0,304.0 377.0,304.0 378.0,304.0 379.0,304.0 380.0,304.0 381.0,304.0 382.0,304.0 383.0,304.0 384.0,304.0 385.0,304.0 386.0,305.0 387.0,305.0 388.0,305.0 389.0,304.0 390.0,301.0 391.0,293.0 392.0,293.0 393.0,293.0 394.0,293.0 395.0,292.0 396.0,296.0 397.0,303.0 398.0,303.0 399.0,302.0 400.0,299.0 401.0,299.0 402.0,282.0 403.0,283.0 404.0,281.0 405.0,281.0 406.0,276.0 407.0,272.0 408.0,274.0 409.0,272.0 410.0,274.0 411.0,276.0 412.0,274.0 413.0,274.0 414.0,279.0 415.0,283.0 416.0,285.0 417.0,283.0 418.0,285.0 419.0,287.0 420.0,287.0 421.0,288.0 422.0,283.0 423.0,285.0 424.0,285.0 425.0,278.0 426.0,279.0 427.0,275.0 428.0,278.0 429.0,281.0 430.0,282.0 431.0,288.0 432.0,296.0 433.0,301.0 434.0,301.0 435.0,302.0 436.0,303.0 437.0,303.0 438.0,303.0 439.0,304.0 440.0,305.0 441.0,304.0 442.0,304.0 443.0,304.0 444.0,305.0 445.0,305.0 446.0,305.0 447.0,305.0 448.0,305.0 449.0,304.0 450.0,303.0 451.0,302.0 452.0,302.0 453.0,301.0 454.0,302.0 455.0,302.0 456.0,304.0 457.0,304.0 458.0,304.0 459.0,304.0 460.0,303.0 461.0,303.0 462.0,301.0 463.0,283.0 464.0,277.0 465.0,276.0 466.0,277.0 467.0,273.0 468.0,273.0 469.0,285.0 470.0,286.0 471.0,284.0 472.0,278.0 473.0,280.0 474.0,271.0 475.0,272.0 476.0,277.0 477.0,280.0 478.0,277.0 479.0,275.0 480.0,274.0 481.0,275.0 482.0,278.0 483.0,276.0 484.0,274.0 485.0,270.0 486.0,274.0 487.0,270.0 488.0,271.0 489.0,269.0 490.0,264.0 491.0,264.0 492.0,269.0 493.0,272.0 494.0,268.0 495.0,272.0 496.0,273.0 497.0,275.0 498.0,289.0 499.0,295.0 500.0,298.0 501.0,297.0 502.0,298.0 503.0,299.0 504.0,302.0 505.0,303.0 506.0,303.0 507.0,305.0 508.0,304.0 509.0,304.0 510.0,303.0 511.0,303.0 512.0,303.0 513.0,302.0 514.0,303.0 515.0,304.0 516.0,304.0 517.0,304.0 518.0,303.0 519.0,304.0 520.0,303.0 521.0,303.0 522.0,302.0 523.0,301.0 524.0,301.0 525.0,301.0 526.0,300.0 527.0,298.0 528.0,300.0 529.0,301.0 530.0,301.0 531.0,300.0 532.0,300.0 533.0,300.0 534.0,298.0 535.0,272.0 536.0,263.0 537.0,261.0 538.0,260.0 539.0,262.0 540.0,260.0 541.0,260.0 542.0,267.0 543.0,262.0 544.0,260.0 545.0,260.0 546.0,261.0 547.0,261.0 548.0,253.0 549.0,253.0 550.0,257.0 551.0,259.0 552.0,262.0 553.0,264.0 554.0,268.0 555.0,251.0 556.0,250.0 557.0,252.0 558.0,251.0 559.0,258.0 560.0,261.0 561.0,257.0 562.0,256.0 563.0,258.0 564.0,267.0 565.0,279.0 566.0,288.0 567.0,293.0 568.0,295.0 569.0,296.0 570.0,297.0 571.0,299.0 572.0,300.0 573.0,300.0 574.0,302.0 575.0,303.0 576.0,303.0 577.0,303.0 578.0,303.0 579.0,304.0 580.0,303.0 581.0,303.0 582.0,302.0 583.0,300.0 584.0,301.0 585.0,300.0 586.0,301.0 587.0,300.0 588.0,301.0 589.0,302.0 590.0,302.0 591.0,303.0 592.0,302.0 593.0,304.0 594.0,304.0 595.0,298.0 596.0,298.0 597.0,297.0 598.0,297.0 599.0,296.0 600.0,295.0 601.0,300.0 602.0,299.0 603.0,296.0 604.0,295.0 605.0,294.0 606.0,282.0 607.0,252.0 608.0,246.0 609.0,243.0 610.0,243.0 611.0,241.0 612.0,237.0 613.0,239.0 614.0,245.0 615.0,240.0 616.0,240.0 617.0,242.0 618.0,243.0 619.0,241.0 620.0,244.0 621.0,241.0 622.0,241.0 623.0,242.0 624.0,242.0 625.0,241.0 626.0,251.0 627.0,254.0 628.0,253.0 629.0,257.0 630.0,267.0 631.0,274.0 632.0,275.0 633.0,281.0 634.0,286.0 635.0,290.0 636.0,297.0 637.0,299.0 638.0,301.0 639.0,303.0 640.0,302.0 641.0,302.0 642.0,300.0 643.0,299.0 644.0,299.0 645.0,299.0 646.0,300.0 647.0,298.0 648.0,300.0 649.0,302.0 650.0,302.0 651.0,302.0 652.0,302.0 653.0,304.0 654.0,304.0 655.0,304.0 656.0,304.0 657.0,304.0 658.0,304.0 659.0,304.0 660.0,304.0 661.0,303.0 662.0,303.0 663.0,301.0 664.0,300.0 665.0,299.0 666.0,298.0 667.0,278.0 668.0,272.0 669.0,270.0 670.0,271.0 671.0,268.0 672.0,268.0 673.0,276.0 674.0,280.0 675.0,276.0" fill="none" stroke="#ff0000" />
	<polyline points="76.0,287.0 77.0,287.0 78.0,292.0 79.0,297.0 80.0,294.0 81.0,293.0 82.0,299.0 83.0,301.0 84.0,298.0 85.0,299.0 86.0,299.0 87.0,299.0 88.0,299.0 89.0,300.0 90.0,300.0 91.0,300.0 92.0,297.0 93.0,298.0 94.0,298.0 95.0,298.0 96.0,298.0 97.0,292.0 98.0,293.0 99.0,288.0 100.0,287.0 101.0,288.0 102.0,288.0 103.0,288.0 104.0,288.0 105.0,286.0 106.0,286.0 107.0,286.0 108.0,286.0 109.0,284.0 110.0,286.0 111.0,284.0 112.0,286.0 113.0,284.0 114.0,287.0 115.0,284.0 116.0,287.0 117.0,285.0 118.0,284.0 119.0,285.0 120.0,285.0 121.0,285.0 122.0,285.0 123.0,285.0 124.0,285.0 125.0,285.0 126.0,285.0 127.0,285.0 128.0,285.0 129.0,285.0 130.0,285.0 131.0,286.0 132.0,285.0 133.0,283.0 134.0,286.0 135.0,283.0 136.0,288.0 137.0,283.0 138.0,283.0 139.0,283.0 140.0,289.0 141.0,290.0 142.0,287.0 143.0,287.0 144.0,287.0 145.0,286.0 146.0,286.0 147.0,288.0 148.0,288.0 149.0,288.0 150.0,291.0 151.0,291.0 152.0,290.0 153.0,293.0 154.0,295.0 155.0,292.0 156.0,289.0 157.0,289.0 158.0,286.0 159.0,280.0 160.0,277.0 161.0,280.0 162.0,280.0 163.0,281.0 164.0,285.0 165.0,285.0 166.0,285.0 167.0,280.0 168.0,283.0 169.0,284.0 170.0,284.0 171.0,281.0 172.0,284.0 173.0,282.0 174.0,285.0 175.0,282.0 176.0,283.0 177.0,283.0 178.0,284.0 179.0,284.0 180.0,281.0 181.0,282.0 182.0,282.0 183.0,279.0 184.0,280.0 185.0,280.0 186.0,280.0 187.0,278.0 188.0,278.0 189.0,278.0 190.0,279.0 191.0,279.0 192.0,279.0 193.0,277.0 194.0,277.0 195.0,277.0 196.0,276.0 197.0,274.0 198.0,272.0 199.0,272.0 200.0,277.0 201.0,277.0 202.0,277.0 203.0,276.0 204.0,273.0 205.0,274.0 206.0,276.0 207.0,272.0 208.0,273.0 209.0,273.0 210.0,274.0 211.0,269.0 212.0,277.0 213.0,280.0 214.0,274.0 215.0,274.0 216.0,277.0 217.0,276.0 218.0,276.0 219.0,277.0 220.0,277.0 221.0,277.0 222.0,274.0 223.0,275.0 224.0,275.0 225.0,276.0 226.0,279.0 227.0,282.0 228.0,279.0 229.0,283.0 230.0,277.0 231.0,277.0 232.0,275.0 233.0,275.0 234.0,275.0 235.0,275.0 236.0,272.0 237.0,270.0 238.0,272.0 239.0,268.0 240.0,267.0 241.0,266.0 242.0,269.0 243.0,268.0 244.0,270.0 245.0,270.0 246.0,270.0 247.0,268.0 248.0,269.0 249.0,269.0 250.0,270.0 251.0,269.0 252.0,270.0 253.0,270.0 254.0,270.0 255.0,270.0 256.0,267.0 257.0,263.0 258.0,264.0 259.0,262.0 260.0,263.0 261.0,261.0 262.0,262.0 263.0,262.0 264.0,254.0 265.0,253.0 266.0,250.0 267.0,252.0 268.0,250.0 269.0,250.0 270.0,250.0 271.0,252.0 272.0,268.0 273.0,265.0 274.0,261.0 275.0,259.0 276.0,259.0 277.0,264.0 278.0,254.0 279.0,257.0 280.0,256.0 281.0,254.0 282.0,252.0 283.0,252.0 284.0,251.0 285.0,250.0 286.0,258.0 287.0,259.0 288.0,256.0 289.0,259.0 290.0,258.0 291.0,256.0 292.0,246.0 293.0,246.0 294.0,251.0 295.0,246.0 296.0,251.0 297.0,251.0 298.0,253.0 299.0,253.0 300.0,252.0 301.0,249.0 302.0,249.0 303.0,245.0 304.0,245.0 305.0,246.0 306.0,243.0 307.0,244.0 308.0,244.0 309.0,241.0 310.0,242.0 311.0,240.0 312.0,239.0 313.0,237.0 314.0,235.0 315.0,235.0 316.0,236.0 317.0,236.0 318.0,236.0 319.0,237.0 320.0,237.0 321.0,235.0 322.0,236.0 323.0,232.0 324.0,232.0 325.0,230.0 326.0,227.0 327.0,224.0 328.0,221.0 329.0,220.0 330.0,220.0 331.0,219.0 332.0,236.0 333.0,240.0 334.0,236.0 335.0,228.0 336.0,227.0 337.0,237.0 338.0,235.0 339.0,224.0 340.0,221.0 341.0,218.0 342.0,222.0 343.0,224.0 344.0,233.0 345.0,246.0 346.0,245.0 347.0,245.0 348.0,247.0 349.0,244.0 350.0,241.0 351.0,243.0 352.0,242.0 353.0,241.0 354.0,242.0 355.0,242.0 356.0,240.0 357.0,245.0 358.0,245.0 359.0,251.0 360.0,244.0 361.0,248.0 362.0,246.0 363.0,240.0 364.0,239.0 365.0,241.0 366.0,242.0 367.0,242.0 368.0,241.0 369.0,241.0 370.0,240.0 371.0,241.0 372.0,241.0 373.0,243.0 374.0,242.0 375.0,244.0 376.0,239.0 377.0,237.0 378.0,235.0 379.0,230.0 380.0,228.0 381.0,230.0 382.0,229.0 383.0,228.0 384.0,222.0 385.0,222.0 386.0,216.0 387.0,217.0 388.0,216.0 389.0,213.0 390.0,209.0 391.0,208.0 392.0,215.0 393.0,213.0 394.0,210.0 395.0,203.0 396.0,204.0 397.0,205.0 398.0,203.0 399.0,203.0 400.0,203.0 401.0,202.0 402.0,202.0 403.0,204.0 404.0,222.0 405.0,225.0 406.0,220.0 407.0,210.0 408.0,208.0 409.0,214.0 410.0,212.0 411.0,205.0 412.0,213.0 413.0,218.0 414.0,220.0 415.0,219.0 416.0,224.0 417.0,228.0 418.0,226.0 419.0,227.0 420.0,228.0 421.0,228.0 422.0,236.0 423.0,223.0 424.0,223.0 425.0,225.0 426.0,225.0 427.0,226.0 428.0,219.0 429.0,216.0 430.0,211.0 431.0,212.0 432.0,210.0 433.0,210.0 434.0,211.0 435.0,204.0 436.0,201.0 437.0,201.0 438.0,197.0 439.0,191.0 440.0,189.0 441.0,184.0 442.0,181.0 443.0,183.0 444.0,180.0 445.0,182.0 446.0,180.0 447.0,182.0 448.0,181.0 449.0,182.0 450.0,182.0 451.0,183.0 452.0,182.0 453.0,184.0 454.0,183.0 455.0,184.0 456.0,183.0 457.0,185.0 458.0,184.0 459.0,185.0 460.0,184.0 461.0,185.0 462.0,185.0 463.0,183.0 464.0,182.0 465.0,179.0 466.0,178.0 467.0,178.0 468.0,180.0 469.0,178.0 470.0,175.0 471.0,173.0 472.0,175.0 473.0,174.0 474.0,175.0 475.0,173.0 476.0,172.0 477.0,192.0 478.0,194.0 479.0,196.0 480.0,194.0 481.0,206.0 482.0,218.0 483.0,214.0 484.0,217.0 485.0,215.0 486.0,213.0 487.0,218.0 488.0,215.0 489.0,221.0 490.0,220.0 491.0,220.0 492.0,218.0 493.0,215.0 494.0,215.0 495.0,213.0 496.0,209.0 497.0,208.0 498.0,196.0 499.0,192.0 500.0,193.0 501.0,187.0 502.0,183.0 503.0,167.0 504.0,162.0 505.0,163.0 506.0,166.0 507.0,164.0 508.0,163.0 509.0,164.0 510.0,165.0 511.0,166.0 512.0,167.0 513.0,168.0 514.0,168.0 515.0,169.0 516.0,164.0 517.0,166.0 518.0,162.0 519.0,162.0 520.0,163.0 521.0,164.0 522.0,164.0 523.0,164.0 524.0,165.0 525.0,165.0 526.0,165.0 527.0,166.0 528.0,166.0 529.0,166.0 530.0,167.0 531.0,167.0 532.0,167.0 533.0,167.0 534.0,168.0 535.0,163.0 536.0,163.0 537.0,159.0 538.0,157.0 539.0,162.0 540.0,161.0 541.0,158.0 542.0,152.0 543.0,158.0 544.0,153.0 545.0,152.0 546.0,150.0 547.0,145.0 548.0,147.0 549.0,169.0 550.0,171.0 551.0,186.0 552.0,182.0 553.0,197.0 554.0,190.0 555.0,189.0 556.0,173.0 557.0,185.0 558.0,185.0 559.0,178.0 560.0,173.0 561.0,175.0 562.0,173.0 563.0,174.0 564.0,171.0 565.0,156.0 566.0,156.0 567.0,134.0 568.0,128.0 569.0,132.0 570.0,131.0 571.0,132.0 572.0,133.0 573.0,135.0 574.0,137.0 575.0,139.0 576.0,140.0 577.0,142.0 578.0,141.0 579.0,141.0 580.0,143.0 581.0,138.0 582.0,139.0 583.0,138.0 584.0,140.0 585.0,135.0 586.0,138.0 587.0,135.0 588.0,136.0 589.0,135.0 590.0,136.0 591.0,135.0 592.0,133.0 593.0,134.0 594.0,133.0 595.0,131.0 596.0,133.0 597.0,134.0 598.0,133.0 599.0,131.0 600.0,130.0 601.0,132.0 602.0,128.0 603.0,128.0 604.0,124.0 605.0,127.0 606.0,119.0 607.0,118.0 608.0,109.0 609.0,121.0 610.0,117.0 611.0,104.0 612.0,102.0 613.0,102.0 614.0,100.0 615.0,97.0 616.0,96.0 617.0,88.0 618.0,90.0 619.0,85.0 620.0,83.0 621.0,82.0 622.0,82.0 623.0,78.0 624.0,75.0 625.0,78.0 626.0,74.0 627.0,80.0 628.0,81.0 629.0,79.0 630.0,81.0 631.0,85.0 632.0,89.0 633.0,92.0 634.0,92.0 635.0,93.0 636.0,95.0 637.0,99.0 638.0,100.0 639.0,101.0 640.0,103.0 641.0,104.0 642.0,105.0 643.0,106.0 644.0,107.0 645.0,108.0 646.0,109.0 647.0,110.0 648.0,111.0 649.0,112.0 650.0,113.0 651.0,114.0 652.0,114.0 653.0,115.0 654.0,116.0 655.0,116.0 656.0,117.0 657.0,118.0 658.0,118.0 659.0,119.0 660.0,119.0 661.0,120.0 662.0,120.0 663.0,120.0 664.0,121.0 665.0,121.0 666.0,121.0 667.0,123.0 668.0,119.0 669.0,111.0 670.0,112.0 671.0,115.0 672.0,115.0 673.0,113.0 674.0,110.0 675.0,113.0" fill="none" stroke="#008000" />
	<polyline points="76.0,5.0 676.0,5.0" fill="none" stroke="#6d6d6d" />
	<polyline points="76.0,305.0 676.0,305.0" fill="none" stroke="#6d6d6d" />
	<polyline points="76.0,305.0 76.0,310.0" fill="none" stroke="#6d6d6d" />
	<polyline points="226.0,305.0 226.0,310.0" fill="none" stroke="#6d6d6d" />
	<polyline points="376.0,305.0 376.0,310.0" fill="none" stroke="#6d6d6d" />
	<polyline points="526.0,305.0 526.0,310.0" fill="none" stroke="#6d6d6d" />
	<polyline points="676.0,305.0 676.0,310.0" fill="none" stroke="#6d6d6d" />
	<polyline points="76.0,5.0 76.0,305.0" fill="none" stroke="#6d6d6d" />
	<polyline points="676.0,5.0 676.0,305.0" fill="none" stroke="#6d6d6d" />
	<polyline points="71.0,5.0 76.0,5.0" fill="none" stroke="#6d6d6d" />
	<polyline points="71.0,80.0 76.0,80.0" fill="none" stroke="#6d6d6d" />
	<polyline points="71.0,155.0 76.0,155.0" fill="none" stroke="#6d6d6d" />
	<polyline points="71.0,230.0 76.0,230.0" fill="none" stroke="#6d6d6d" />
	<polyline points="71.0,305.0 76.0,305.0" fill="none" stroke="#6d6d6d" />
	<text x="76.0" y="328.0" fill="#6d6d6d" font-family="Arial" font-size="9pt" text-anchor="middle">1</text>
	<text x="226.0" y="328.0" fill="#6d6d6d" font-family="Arial" font-size="9pt" text-anchor="middle">150</text>
	<text x="376.0" y="328.0" fill="#6d6d6d" font-family="Arial" font-size="9pt" text-anchor="middle">300</text>
	<text x="526.0" y="328.0" fill="#6d6d6d" font-family="Arial" font-size="9pt" text-anchor="middle">450</text>
	<text x="676.0" y="328.0" fill="#6d6d6d" font-family="Arial" font-size="9pt" text-anchor="middle">600</text>
	<text x="66.0" y="10.0" fill="#6d6d6d" font-family="Arial" font-size="9pt" text-anchor="end">4.6e+04</text>
	<text x="66.0" y="85.0" fill="#6d6d6d" font-family="Arial" font-size="9pt" text-anchor="end">3.45e+04</text>
	<text x="66.0" y="160.0" fill="#6d6d6d" font-family="Arial" font-size="9pt" text-anchor="end">2.3e+04</text>
	<text x="66.0" y="235.0" fill="#6d6d6d" font-family="Arial" font-size="9pt" text-anchor="end">1.15e+04</text>
	<text x="66.0" y="310.0" fill="#6d6d6d" font-family="Arial" font-size="9pt" text-anchor="end">0</text>
</svg>
