<?xml version="1.0" encoding="UTF-8" standalone="no"?>
<!DOCTYPE svg PUBLIC "-//W3C//DTD SVG 1.1//EN" "http://www.w3.org/Graphics/SVG/1.1/DTD/svg11.dtd">
<svg xmlns="http://www.w3.org/2000/svg"  version="1.1" width="715.0" height="423.0" viewBox="-6.0 -13.0 709.0 410.0">
	<desc>LSD Plot - r4_sector_co2_impostos_subsidios</desc>
	<polyline points="226.0,6.0 226.0,304.0" fill="none" stroke="#f0f0f0" />
	<polyline points="376.0,6.0 376.0,304.0" fill="none" stroke="#f0f0f0" />
	<polyline points="526.0,6.0 526.0,304.0" fill="none" stroke="#f0f0f0" />
	<polyline points="77.0,80.0 675.0,80.0" fill="none" stroke="#f0f0f0" />
	<polyline points="77.0,155.0 675.0,155.0" fill="none" stroke="#f0f0f0" />
	<polyline points="77.0,230.0 675.0,230.0" fill="none" stroke="#f0f0f0" />
	<text x="5.0" y="353.0" font-family="Arial" font-size="9pt">Sector_Total_Subs_and_Tax_CO2_Emissions_1_1_1</text>
	<text x="5.0" y="370.0" fill="#ff0000" font-family="Arial" font-size="9pt">Sector_Total_Subs_and_Tax_CO2_Emissions_1_1_2</text>
	<text x="5.0" y="387.0" font-family="Arial" font-size="9pt">(1 more...)</text>
	<polyline points="76.0,283.0 77.0,283.0 78.0,281.0 79.0,278.0 80.0,278.0 81.0,277.0 82.0,277.0 83.0,280.0 84.0,280.0 85.0,280.0 86.0,281.0 87.0,281.0 88.0,281.0 89.0,284.0 90.0,284.0 91.0,281.0 92.0,281.0 93.0,281.0 94.0,284.0 95.0,281.0 96.0,280.0 97.0,278.0 98.0,277.0 99.0,276.0 100.0,276.0 101.0,277.0 102.0,271.0 103.0,272.0 104.0,269.0 105.0,267.0 106.0,264.0 107.0,264.0 108.0,265.0 109.0,265.0 110.0,265.0 111.0,266.0 112.0,266.0 113.0,267.0 114.0,267.0 115.0,267.0 116.0,267.0 117.0,264.0 118.0,264.0 119.0,265.0 120.0,265.0 121.0,262.0 122.0,256.0 123.0,260.0 124.0,252.0 125.0,254.0 126.0,252.0 127.0,252.0 128.0,253.0 129.0,253.0 130.0,254.0 131.0,254.0 132.0,254.0 133.0,252.0 134.0,252.0 135.0,252.0 136.0,253.0 137.0,253.0 138.0,253.0 139.0,253.0 140.0,250.0 141.0,252.0 142.0,248.0 143.0,246.0 144.0,244.0 145.0,238.0 146.0,243.0 147.0,246.0 148.0,245.0 149.0,240.0 150.0,246.0 151.0,249.0 152.0,248.0 153.0,251.0 154.0,254.0 155.0,251.0 156.0,257.0 157.0,256.0 158.0,262.0 159.0,260.0 160.0,264.0 161.0,248.0 162.0,246.0 163.0,247.0 164.0,251.0 165.0,245.0 166.0,242.0 167.0,249.0 168.0,246.0 169.0,245.0 170.0,244.0 171.0,245.0 172.0,242.0 173.0,242.0 174.0,241.0 175.0,239.0 176.0,235.0 177.0,241.0 178.0,234.0 179.0,234.0 180.0,235.0 181.0,235.0 182.0,237.0 183.0,237.0 184.0,231.0 185.0,232.0 186.0,231.0 187.0,232.0 188.0,229.0 189.0,230.0 190.0,227.0 191.0,228.0 192.0,229.0 193.0,227.0 194.0,230.0 195.0,228.0 196.0,231.0 197.0,230.0 198.0,232.0 199.0,231.0 200.0,232.0 201.0,232.0 202.0,234.0 203.0,239.0 204.0,239.0 205.0,241.0 206.0,232.0 207.0,238.0 208.0,240.0 209.0,242.0 210.0,241.0 211.0,243.0 212.0,247.0 213.0,252.0 214.0,245.0 215.0,246.0 216.0,249.0 217.0,253.0 218.0,259.0 219.0,256.0 220.0,256.0 221.0,250.0 222.0,260.0 223.0,260.0 224.0,255.0 225.0,250.0 226.0,262.0 227.0,255.0 228.0,259.0 229.0,269.0 230.0,268.0 231.0,253.0 232.0,259.0 233.0,250.0 234.0,249.0 235.0,249.0 236.0,252.0 237.0,248.0 238.0,250.0 239.0,248.0 240.0,246.0 241.0,245.0 242.0,239.0 243.0,240.0 244.0,240.0 245.0,240.0 246.0,238.0 247.0,234.0 248.0,230.0 249.0,230.0 250.0,231.0 251.0,231.0 252.0,232.0 253.0,232.0 254.0,233.0 255.0,233.0 256.0,234.0 257.0,234.0 258.0,234.0 259.0,235.0 260.0,233.0 261.0,232.0 262.0,232.0 263.0,233.0 264.0,230.0 265.0,230.0 266.0,230.0 267.0,227.0 268.0,227.0 269.0,228.0 270.0,228.0 271.0,227.0 272.0,225.0 273.0,225.0 274.0,219.0 275.0,219.0 276.0,222.0 277.0,223.0 278.0,231.0 279.0,231.0 280.0,223.0 281.0,223.0 282.0,222.0 283.0,219.0 284.0,219.0 285.0,218.0 286.0,215.0 287.0,215.0 288.0,219.0 289.0,221.0 290.0,216.0 291.0,218.0 292.0,233.0 293.0,230.0 294.0,217.0 295.0,215.0 296.0,213.0 297.0,202.0 298.0,208.0 299.0,204.0 300.0,205.0 301.0,211.0 302.0,209.0 303.0,208.0 304.0,200.0 305.0,205.0 306.0,198.0 307.0,197.0 308.0,196.0 309.0,197.0 310.0,196.0 311.0,196.0 312.0,196.0 313.0,197.0 314.0,198.0 315.0,198.0 316.0,199.0 317.0,200.0 318.0,197.0 319.0,200.0 320.0,198.0 321.0,199.0 322.0,199.0 323.0,199.0 324.0,199.0 325.0,200.0 326.0,200.0 327.0,200.0 328.0,201.0 329.0,201.0 330.0,201.0 331.0,202.0 332.0,202.0 333.0,201.0 334.0,202.0 335.0,200.0 336.0,197.0 337.0,199.0 338.0,199.0 339.0,196.0 340.0,197.0 341.0,196.0 342.0,197.0 343.0,197.0 344.0,196.0 345.0,193.0 346.0,194.0 347.0,205.0 348.0,203.0 349.0,200.0 350.0,208.0 351.0,206.0 352.0,202.0 353.0,202.0 354.0,197.0 355.0,204.0 356.0,211.0 357.0,211.0 358.0,217.0 359.0,227.0 360.0,232.0 361.0,234.0 362.0,239.0 363.0,226.0 364.0,215.0 365.0,221.0 366.0,208.0 367.0,208.0 368.0,199.0 369.0,193.0 370.0,187.0 371.0,186.0 372.0,188.0 373.0,183.0 374.0,178.0 375.0,179.0 376.0,178.0 377.0,179.0 378.0,180.0 379.0,181.0 380.0,182.0 381.0,183.0 382.0,184.0 383.0,185.0 384.0,186.0 385.0,186.0 386.0,184.0 387.0,184.0 388.0,185.0 389.0,182.0 390.0,183.0 391.0,184.0 392.0,184.0 393.0,184.0 394.0,184.0 395.0,184.0 396.0,184.0 397.0,184.0 398.0,185.0 399.0,185.0 400.0,186.0 401.0,186.0 402.0,186.0 403.0,186.0 404.0,186.0 405.0,184.0 406.0,182.0 407.0,182.0 408.0,177.0 409.0,178.0 410.0,178.0 411.0,183.0 412.0,182.0 413.0,181.0 414.0,180.0 415.0,177.0 416.0,176.0 417.0,198.0 418.0,201.0 419.0,208.0 420.0,211.0 421.0,207.0 422.0,208.0 423.0,214.0 424.0,214.0 425.0,212.0 426.0,209.0 427.0,201.0 428.0,201.0 429.0,199.0 430.0,196.0 431.0,191.0 432.0,188.0 433.0,181.0 434.0,176.0 435.0,167.0 436.0,165.0 437.0,161.0 438.0,163.0 439.0,163.0 440.0,154.0 441.0,156.0 442.0,153.0 443.0,153.0 444.0,151.0 445.0,153.0 446.0,153.0 447.0,154.0 448.0,157.0 449.0,157.0 450.0,159.0 451.0,158.0 452.0,160.0 453.0,159.0 454.0,161.0 455.0,161.0 456.0,162.0 457.0,162.0 458.0,164.0 459.0,163.0 460.0,165.0 461.0,165.0 462.0,166.0 463.0,165.0 464.0,166.0 465.0,164.0 466.0,163.0 467.0,162.0 468.0,162.0 469.0,161.0 470.0,161.0 471.0,162.0 472.0,161.0 473.0,165.0 474.0,163.0 475.0,164.0 476.0,163.0 477.0,160.0 478.0,150.0 479.0,151.0 480.0,149.0 481.0,147.0 482.0,148.0 483.0,163.0 484.0,161.0 485.0,159.0 486.0,158.0 487.0,169.0 488.0,180.0 489.0,168.0 490.0,179.0 491.0,178.0 492.0,176.0 493.0,173.0 494.0,181.0 495.0,177.0 496.0,168.0 497.0,167.0 498.0,168.0 499.0,157.0 500.0,145.0 501.0,143.0 502.0,130.0 503.0,131.0 504.0,133.0 505.0,136.0 506.0,135.0 507.0,136.0 508.0,134.0 509.0,135.0 510.0,137.0 511.0,138.0 512.0,137.0 513.0,138.0 514.0,140.0 515.0,141.0 516.0,142.0 517.0,143.0 518.0,144.0 519.0,142.0 520.0,137.0 521.0,142.0 522.0,129.0 523.0,125.0 524.0,125.0 525.0,121.0 526.0,119.0 527.0,120.0 528.0,117.0 529.0,119.0 530.0,118.0 531.0,116.0 532.0,117.0 533.0,116.0 534.0,117.0 535.0,117.0 536.0,119.0 537.0,116.0 538.0,121.0 539.0,136.0 540.0,133.0 541.0,134.0 542.0,133.0 543.0,135.0 544.0,130.0 545.0,129.0 546.0,127.0 547.0,124.0 548.0,122.0 549.0,119.0 550.0,113.0 551.0,109.0 552.0,108.0 553.0,106.0 554.0,106.0 555.0,105.0 556.0,95.0 557.0,96.0 558.0,93.0 559.0,100.0 560.0,85.0 561.0,90.0 562.0,82.0 563.0,83.0 564.0,80.0 565.0,88.0 566.0,78.0 567.0,86.0 568.0,82.0 569.0,83.0 570.0,87.0 571.0,89.0 572.0,88.0 573.0,82.0 574.0,71.0 575.0,69.0 576.0,68.0 577.0,72.0 578.0,73.0 579.0,74.0 580.0,74.0 581.0,77.0 582.0,78.0 583.0,81.0 584.0,81.0 585.0,83.0 586.0,84.0 587.0,85.0 588.0,85.0 589.0,85.0 590.0,87.0 591.0,87.0 592.0,86.0 593.0,89.0 594.0,88.0 595.0,90.0 596.0,89.0 597.0,91.0 598.0,90.0 599.0,91.0 600.0,91.0 601.0,89.0 602.0,91.0 603.0,89.0 604.0,90.0 605.0,92.0 606.0,92.0 607.0,92.0 608.0,89.0 609.0,87.0 610.0,85.0 611.0,81.0 612.0,79.0 613.0,78.0 614.0,75.0 615.0,72.0 616.0,72.0 617.0,70.0 618.0,69.0 619.0,61.0 620.0,64.0 621.0,37.0 622.0,52.0 623.0,14.0 624.0,22.0 625.0,11.0 626.0,16.0 627.0,8.0 628.0,12.0 629.0,9.0 630.0,7.0 631.0,10.0 632.0,7.0 633.0,19.0 634.0,52.0 635.0,35.0 636.0,23.0 637.0,25.0 638.0,27.0 639.0,30.0 640.0,33.0 641.0,35.0 642.0,37.0 643.0,39.0 644.0,41.0 645.0,43.0 646.0,44.0 647.0,46.0 648.0,47.0 649.0,49.0 650.0,50.0 651.0,52.0 652.0,53.0 653.0,55.0 654.0,55.0 655.0,57.0 656.0,57.0 657.0,59.0 658.0,59.0 659.0,61.0 660.0,61.0 661.0,62.0 662.0,62.0 663.0,63.0 664.0,63.0 665.0,64.0 666.0,65.0 667.0,65.0 668.0,67.0 669.0,66.0 670.0,62.0 671.0,58.0 672.0,55.0 673.0,55.0 674.0,52.0 675.0,51.0" fill="none" stroke="#000000" />
	<polyline points="76.0,304.0 77.0,305.0 78.0,305.0 79.0,305.0 80.0,305.0 81.0,305.0 82.0,305.0 83.0,305.0 84.0,305.0 85.0,305.0 86.0,305.0 87.0,305.0 88.0,302.0 89.0,303.0 90.0,303.0 91.0,303.0 92.0,304.0 93.0,304.0 94.0,301.0 95.0,294.0 96.0,294.0 97.0,290.0 98.0,291.0 99.0,285.0 100.0,288.0 101.0,289.0 102.0,289.0 103.0,291.0 104.0,294.0 105.0,293.0 106.0,296.0 107.0,296.0 108.0,299.0 109.0,298.0 110.0,297.0 111.0,296.0 112.0,294.0 113.0,292.0 114.0,291.0 115.0,290.0 116.0,292.0 117.0,295.0 118.0,295.0 119.0,299.0 120.0,298.0 121.0,298.0 122.0,300.0 123.0,298.0 124.0,301.0 125.0,301.0 126.0,302.0 127.0,302.0 128.0,302.0 129.0,304.0 130.0,304.0 131.0,303.0 132.0,301.0 133.0,298.0 134.0,296.0 135.0,296.0 136.0,295.0 137.0,295.0 138.0,286.0 139.0,290.0 140.0,298.0 141.0,298.0 142.0,298.0 143.0,298.0 144.0,298.0 145.0,293.0 146.0,291.0 147.0,289.0 148.0,289.0 149.0,291.0 150.0,293.0 151.0,301.0 152.0,298.0 153.0,292.0 154.0,292.0 155.0,292.0 156.0,292.0 157.0,292.0 158.0,284.0 159.0,282.0 160.0,285.0 161.0,286.0 162.0,283.0 163.0,286.0 164.0,287.0 165.0,286.0 166.0,290.0 167.0,293.0 168.0,292.0 169.0,289.0 170.0,284.0 171.0,284.0 172.0,285.0 173.0,286.0 174.0,290.0 175.0,294.0 176.0,301.0 177.0,302.0 178.0,302.0 179.0,304.0 180.0,300.0 181.0,301.0 182.0,301.0 183.0,300.0 184.0,300.0 185.0,300.0 186.0,304.0 187.0,304.0 188.0,304.0 189.0,305.0 190.0,305.0 191.0,305.0 192.0,304.0 193.0,301.0 194.0,302.0 195.0,301.0 196.0,301.0 197.0,301.0 198.0,284.0 199.0,286.0 200.0,284.0 201.0,283.0 202.0,283.0 203.0,281.0 204.0,283.0 205.0,284.0 206.0,283.0 207.0,285.0 208.0,284.0 209.0,286.0 210.0,281.0 211.0,291.0 212.0,294.0 213.0,291.0 214.0,291.0 215.0,291.0 216.0,291.0 217.0,286.0 218.0,285.0 219.0,286.0 220.0,289.0 221.0,288.0 222.0,286.0 223.0,284.0 224.0,283.0 225.0,281.0 226.0,278.0 227.0,280.0 228.0,279.0 229.0,282.0 230.0,282.0 231.0,284.0 232.0,287.0 233.0,287.0 234.0,290.0 235.0,293.0 236.0,301.0 237.0,303.0 238.0,304.0 239.0,305.0 240.0,303.0 241.0,303.0 242.0,303.0 243.0,302.0 244.0,302.0 245.0,302.0 246.0,303.0 247.0,304.0 248.0,304.0 249.0,305.0 250.0,305.0 251.0,305.0 252.0,304.0 253.0,304.0 254.0,304.0 255.0,304.0 256.0,302.0 257.0,302.0 258.0,303.0 259.0,299.0 260.0,295.0 261.0,295.0 262.0,295.0 263.0,294.0 264.0,295.0 265.0,298.0 266.0,299.0 267.0,299.0 268.0,301.0 269.0,301.0 270.0,287.0 271.0,273.0 272.0,282.0 273.0,284.0 274.0,284.0 275.0,284.0 276.0,284.0 277.0,281.0 278.0,280.0 279.0,281.0 280.0,279.0 281.0,280.0 282.0,282.0 283.0,282.0 284.0,286.0 285.0,278.0 286.0,280.0 287.0,280.0 288.0,280.0 289.0,280.0 290.0,280.0 291.0,286.0 292.0,287.0 293.0,287.0 294.0,281.0 295.0,281.0 296.0,282.0 297.0,288.0 298.0,292.0 299.0,298.0 300.0,299.0 301.0,300.0 302.0,302.0 303.0,301.0 304.0,301.0 305.0,301.0 306.0,303.0 307.0,304.0 308.0,304.0 309.0,305.0 310.0,305.0 311.0,305.0 312.0,304.0 313.0,304.0 314.0,304.0 315.0,304.0 316.0,303.0 317.0,303.0 318.0,304.0 319.0,304.0 320.0,303.0 321.0,303.0 322.0,303.0 323.0,303.0 324.0,303.0 325.0,303.0 326.0,304.0 327.0,304.0 328.0,304.0 329.0,304.0 330.0,300.0 331.0,282.0 332.0,280.0 333.0,283.0 334.0,283.0 335.0,285.0 336.0,285.0 337.0,280.0 338.0,288.0 339.0,287.0 340.0,282.0 341.0,282.0 342.0,285.0 343.0,285.0 344.0,303.0 345.0,303.0 346.0,300.0 347.0,300.0 348.0,300.0 349.0,298.0 350.0,296.0 351.0,293.0 352.0,293.0 353.0,295.0 354.0,296.0 355.0,293.0 356.0,295.0 357.0,295.0 358.0,293.0 359.0,294.0 360.0,283.0 361.0,283.0 362.0,277.0 363.0,279.0 364.0,279.0 365.0,284.0 366.0,297.0 367.0,299.0 368.0,302.0 369.0,303.0 370.0,303.0 371.0,303.0 372.0,303.0 373.0,303.0 374.0,303.0 375.0,304.0 376.0,304.0 377.0,304.0 378.0,304.0 379.0,304.0 380.0,304.0 381.0,304.0 382.0,304.0 383.0,304.0 384.0,304.0 385.0,304.0 386.0,305.0 387.0,305.0 388.0,305.0 389.0,304.0 390.0,301.0 391.0,292.0 392.0,292.0 393.0,292.0 394.0,292.0 395.0,292.0 396.0,295.0 397.0,303.0 398.0,303.0 399.0,302.0 400.0,299.0 401.0,299.0 402.0,281.0 403.0,283.0 404.0,281.0 405.0,280.0 406.0,276.0 407.0,272.0 408.0,274.0 409.0,272.0 410.0,274.0 411.0,275.0 412.0,274.0 413.0,274.0 414.0,278.0 415.0,283.0 416.0,285.0 417.0,283.0 418.0,285.0 419.0,287.0 420.0,287.0 421.0,288.0 422.0,283.0 423.0,284.0 424.0,284.0 425.0,278.0 426.0,278.0 427.0,274.0 428.0,277.0 429.0,280.0 430.0,281.0 431.0,288.0 432.0,295.0 433.0,301.0 434.0,301.0 435.0,301.0 436.0,303.0 437.0,303.0 438.0,303.0 439.0,304.0 440.0,305.0 441.0,304.0 442.0,304.0 443.0,304.0 444.0,305.0 445.0,305.0 446.0,305.0 447.0,305.0 448.0,305.0 449.0,304.0 450.0,303.0 451.0,302.0 452.0,302.0 453.0,301.0 454.0,302.0 455.0,302.0 456.0,304.0 457.0,304.0 458.0,304.0 459.0,304.0 460.0,302.0 461.0,302.0 462.0,301.0 463.0,282.0 464.0,277.0 465.0,275.0 466.0,276.0 467.0,272.0 468.0,272.0 469.0,285.0 470.0,285.0 471.0,283.0 472.0,277.0 473.0,279.0 474.0,271.0 475.0,272.0 476.0,276.0 477.0,281.0 478.0,278.0 479.0,275.0 480.0,275.0 481.0,275.0 482.0,278.0 483.0,276.0 484.0,273.0 485.0,270.0 486.0,274.0 487.0,271.0 488.0,271.0 489.0,268.0 490.0,264.0 491.0,264.0 492.0,269.0 493.0,271.0 494.0,267.0 495.0,271.0 496.0,272.0 497.0,274.0 498.0,288.0 499.0,294.0 500.0,298.0 501.0,297.0 502.0,298.0 503.0,299.0 504.0,302.0 505.0,303.0 506.0,303.0 507.0,305.0 508.0,304.0 509.0,304.0 510.0,303.0 511.0,303.0 512.0,303.0 513.0,302.0 514.0,303.0 515.0,304.0 516.0,304.0 517.0,304.0 518.0,303.0 519.0,304.0 520.0,303.0 521.0,303.0 522.0,302.0 523.0,300.0 524.0,301.0 525.0,301.0 526.0,300.0 527.0,298.0 528.0,300.0 529.0,301.0 530.0,301.0 531.0,300.0 532.0,300.0 533.0,300.0 534.0,298.0 535.0,272.0 536.0,262.0 537.0,260.0 538.0,260.0 539.0,261.0 540.0,259.0 541.0,260.0 542.0,267.0 543.0,261.0 544.0,260.0 545.0,260.0 546.0,261.0 547.0,262.0 548.0,252.0 549.0,254.0 550.0,258.0 551.0,260.0 552.0,263.0 553.0,266.0 554.0,269.0 555.0,250.0 556.0,249.0 557.0,251.0 558.0,250.0 559.0,257.0 560.0,261.0 561.0,257.0 562.0,256.0 563.0,257.0 564.0,267.0 565.0,278.0 566.0,288.0 567.0,292.0 568.0,294.0 569.0,296.0 570.0,296.0 571.0,298.0 572.0,300.0 573.0,300.0 574.0,302.0 575.0,303.0 576.0,303.0 577.0,303.0 578.0,303.0 579.0,304.0 580.0,303.0 581.0,303.0 582.0,301.0 583.0,300.0 584.0,301.0 585.0,300.0 586.0,301.0 587.0,299.0 588.0,301.0 589.0,302.0 590.0,302.0 591.0,303.0 592.0,302.0 593.0,304.0 594.0,304.0 595.0,298.0 596.0,297.0 597.0,297.0 598.0,297.0 599.0,295.0 600.0,295.0 601.0,300.0 602.0,299.0 603.0,296.0 604.0,295.0 605.0,294.0 606.0,282.0 607.0,252.0 608.0,246.0 609.0,244.0 610.0,243.0 611.0,242.0 612.0,238.0 613.0,240.0 614.0,245.0 615.0,241.0 616.0,241.0 617.0,243.0 618.0,244.0 619.0,243.0 620.0,246.0 621.0,243.0 622.0,243.0 623.0,244.0 624.0,244.0 625.0,242.0 626.0,252.0 627.0,254.0 628.0,254.0 629.0,258.0 630.0,267.0 631.0,274.0 632.0,275.0 633.0,280.0 634.0,285.0 635.0,290.0 636.0,297.0 637.0,299.0 638.0,301.0 639.0,303.0 640.0,302.0 641.0,302.0 642.0,300.0 643.0,299.0 644.0,299.0 645.0,299.0 646.0,300.0 647.0,298.0 648.0,300.0 649.0,301.0 650.0,302.0 651.0,302.0 652.0,302.0 653.0,304.0 654.0,304.0 655.0,304.0 656.0,304.0 657.0,304.0 658.0,304.0 659.0,304.0 660.0,304.0 661.0,303.0 662.0,303.0 663.0,301.0 664.0,300.0 665.0,299.0 666.0,298.0 667.0,278.0 668.0,271.0 669.0,270.0 670.0,270.0 671.0,268.0 672.0,268.0 673.0,276.0 674.0,280.0 675.0,276.0" fill="none" stroke="#ff0000" />
	<polyline points="76.0,286.0 77.0,286.0 78.0,291.0 79.0,296.0 80.0,293.0 81.0,293.0 82.0,298.0 83.0,301.0 84.0,298.0 85.0,299.0 86.0,299.0 87.0,299.0 88.0,299.0 89.0,299.0 90.0,299.0 91.0,300.0 92.0,297.0 93.0,297.0 94.0,297.0 95.0,297.0 96.0,297.0 97.0,292.0 98.0,292.0 99.0,287.0 100.0,287.0 101.0,287.0 102.0,287.0 103.0,287.0 104.0,288.0 105.0,285.0 106.0,285.0 107.0,286.0 108.0,286.0 109.0,283.0 110.0,285.0 111.0,283.0 112.0,285.0 113.0,284.0 114.0,286.0 115.0,284.0 116.0,286.0 117.0,284.0 118.0,284.0 119.0,284.0 120.0,284.0 121.0,284.0 122.0,284.0 123.0,284.0 124.0,284.0 125.0,284.0 126.0,284.0 127.0,285.0 128.0,284.0 129.0,285.0 130.0,284.0 131.0,285.0 132.0,285.0 133.0,282.0 134.0,285.0 135.0,282.0 136.0,287.0 137.0,282.0 138.0,282.0 139.0,282.0 140.0,289.0 141.0,289.0 142.0,286.0 143.0,286.0 144.0,286.0 145.0,285.0 146.0,285.0 147.0,288.0 148.0,287.0 149.0,287.0 150.0,290.0 151.0,290.0 152.0,290.0 153.0,292.0 154.0,294.0 155.0,291.0 156.0,288.0 157.0,288.0 158.0,285.0 159.0,279.0 160.0,276.0 161.0,279.0 162.0,279.0 163.0,280.0 164.0,284.0 165.0,284.0 166.0,284.0 167.0,279.0 168.0,283.0 169.0,283.0 170.0,283.0 171.0,280.0 172.0,284.0 173.0,281.0 174.0,284.0 175.0,282.0 176.0,282.0 177.0,282.0 178.0,283.0 179.0,283.0 180.0,280.0 181.0,281.0 182.0,281.0 183.0,278.0 184.0,279.0 185.0,279.0 186.0,279.0 187.0,277.0 188.0,277.0 189.0,277.0 190.0,278.0 191.0,278.0 192.0,278.0 193.0,276.0 194.0,276.0 195.0,276.0 196.0,275.0 197.0,273.0 198.0,271.0 199.0,271.0 200.0,277.0 201.0,277.0 202.0,278.0 203.0,276.0 204.0,274.0 205.0,274.0 206.0,277.0 207.0,273.0 208.0,273.0 209.0,274.0 210.0,275.0 211.0,270.0 212.0,277.0 213.0,281.0 214.0,275.0 215.0,275.0 216.0,278.0 217.0,279.0 218.0,278.0 219.0,279.0 220.0,279.0 221.0,279.0 222.0,275.0 223.0,277.0 224.0,277.0 225.0,277.0 226.0,280.0 227.0,284.0 228.0,281.0 229.0,285.0 230.0,279.0 231.0,279.0 232.0,276.0 233.0,277.0 234.0,276.0 235.0,276.0 236.0,273.0 237.0,271.0 238.0,273.0 239.0,269.0 240.0,267.0 241.0,267.0 242.0,270.0 243.0,269.0 244.0,270.0 245.0,270.0 246.0,271.0 247.0,269.0 248.0,270.0 249.0,270.0 250.0,270.0 251.0,270.0 252.0,271.0 253.0,271.0 254.0,271.0 255.0,271.0 256.0,268.0 257.0,264.0 258.0,265.0 259.0,263.0 260.0,263.0 261.0,262.0 262.0,262.0 263.0,263.0 264.0,254.0 265.0,253.0 266.0,250.0 267.0,252.0 268.0,250.0 269.0,250.0 270.0,250.0 271.0,253.0 272.0,269.0 273.0,267.0 274.0,261.0 275.0,260.0 276.0,261.0 277.0,267.0 278.0,255.0 279.0,259.0 280.0,257.0 281.0,255.0 282.0,253.0 283.0,254.0 284.0,253.0 285.0,251.0 286.0,259.0 287.0,260.0 288.0,256.0 289.0,260.0 290.0,260.0 291.0,258.0 292.0,247.0 293.0,247.0 294.0,251.0 295.0,246.0 296.0,252.0 297.0,252.0 298.0,255.0 299.0,255.0 300.0,254.0 301.0,251.0 302.0,251.0 303.0,247.0 304.0,247.0 305.0,247.0 306.0,245.0 307.0,245.0 308.0,246.0 309.0,243.0 310.0,244.0 311.0,242.0 312.0,241.0 313.0,239.0 314.0,236.0 315.0,237.0 316.0,237.0 317.0,238.0 318.0,238.0 319.0,239.0 320.0,239.0 321.0,237.0 322.0,238.0 323.0,234.0 324.0,234.0 325.0,232.0 326.0,229.0 327.0,225.0 328.0,222.0 329.0,221.0 330.0,221.0 331.0,220.0 332.0,237.0 333.0,241.0 334.0,237.0 335.0,230.0 336.0,228.0 337.0,238.0 338.0,236.0 339.0,226.0 340.0,222.0 341.0,219.0 342.0,223.0 343.0,225.0 344.0,235.0 345.0,248.0 346.0,248.0 347.0,248.0 348.0,249.0 349.0,247.0 350.0,244.0 351.0,245.0 352.0,245.0 353.0,244.0 354.0,244.0 355.0,244.0 356.0,242.0 357.0,248.0 358.0,248.0 359.0,254.0 360.0,246.0 361.0,250.0 362.0,247.0 363.0,243.0 364.0,241.0 365.0,244.0 366.0,244.0 367.0,244.0 368.0,243.0 369.0,243.0 370.0,242.0 371.0,243.0 372.0,243.0 373.0,245.0 374.0,245.0 375.0,246.0 376.0,240.0 377.0,238.0 378.0,236.0 379.0,231.0 380.0,229.0 381.0,231.0 382.0,230.0 383.0,229.0 384.0,223.0 385.0,222.0 386.0,216.0 387.0,217.0 388.0,216.0 389.0,213.0 390.0,209.0 391.0,208.0 392.0,215.0 393.0,213.0 394.0,210.0 395.0,203.0 396.0,203.0 397.0,205.0 398.0,203.0 399.0,202.0 400.0,203.0 401.0,202.0 402.0,202.0 403.0,205.0 404.0,224.0 405.0,228.0 406.0,222.0 407.0,211.0 408.0,209.0 409.0,216.0 410.0,213.0 411.0,207.0 412.0,217.0 413.0,221.0 414.0,223.0 415.0,222.0 416.0,227.0 417.0,230.0 418.0,229.0 419.0,231.0 420.0,232.0 421.0,232.0 422.0,239.0 423.0,226.0 424.0,226.0 425.0,228.0 426.0,228.0 427.0,229.0 428.0,222.0 429.0,219.0 430.0,213.0 431.0,214.0 432.0,212.0 433.0,212.0 434.0,213.0 435.0,206.0 436.0,202.0 437.0,203.0 438.0,197.0 439.0,191.0 440.0,189.0 441.0,184.0 442.0,181.0 443.0,183.0 444.0,180.0 445.0,182.0 446.0,180.0 447.0,182.0 448.0,181.0 449.0,182.0 450.0,182.0 451.0,183.0 452.0,183.0 453.0,184.0 454.0,183.0 455.0,185.0 456.0,184.0 457.0,186.0 458.0,185.0 459.0,186.0 460.0,185.0 461.0,186.0 462.0,186.0 463.0,185.0 464.0,184.0 465.0,181.0 466.0,180.0 467.0,180.0 468.0,182.0 469.0,180.0 470.0,177.0 471.0,175.0 472.0,178.0 473.0,177.0 474.0,179.0 475.0,176.0 476.0,173.0 477.0,193.0 478.0,197.0 479.0,198.0 480.0,195.0 481.0,208.0 482.0,221.0 483.0,218.0 484.0,221.0 485.0,219.0 486.0,216.0 487.0,222.0 488.0,219.0 489.0,225.0 490.0,223.0 491.0,223.0 492.0,221.0 493.0,218.0 494.0,218.0 495.0,217.0 496.0,212.0 497.0,211.0 498.0,198.0 499.0,193.0 500.0,194.0 501.0,189.0 502.0,184.0 503.0,167.0 504.0,162.0 505.0,164.0 506.0,166.0 507.0,165.0 508.0,164.0 509.0,166.0 510.0,167.0 511.0,168.0 512.0,168.0 513.0,169.0 514.0,170.0 515.0,171.0 516.0,166.0 517.0,169.0 518.0,165.0 519.0,165.0 520.0,166.0 521.0,166.0 522.0,167.0 523.0,167.0 524.0,167.0 525.0,168.0 526.0,168.0 527.0,169.0 528.0,168.0 529.0,169.0 530.0,170.0 531.0,170.0 532.0,170.0 533.0,170.0 534.0,171.0 535.0,167.0 536.0,166.0 537.0,160.0 538.0,158.0 539.0,165.0 540.0,163.0 541.0,160.0 542.0,153.0 543.0,161.0 544.0,156.0 545.0,155.0 546.0,152.0 547.0,146.0 548.0,149.0 549.0,171.0 550.0,174.0 551.0,190.0 552.0,184.0 553.0,201.0 554.0,193.0 555.0,192.0 556.0,175.0 557.0,187.0 558.0,187.0 559.0,181.0 560.0,176.0 561.0,178.0 562.0,176.0 563.0,176.0 564.0,174.0 565.0,158.0 566.0,158.0 567.0,134.0 568.0,129.0 569.0,133.0 570.0,133.0 571.0,133.0 572.0,135.0 573.0,138.0 574.0,139.0 575.0,142.0 576.0,143.0 577.0,145.0 578.0,145.0 579.0,146.0 580.0,148.0 581.0,142.0 582.0,144.0 583.0,142.0 584.0,145.0 585.0,139.0 586.0,142.0 587.0,139.0 588.0,140.0 589.0,139.0 590.0,140.0 591.0,138.0 592.0,137.0 593.0,138.0 594.0,137.0 595.0,135.0 596.0,136.0 597.0,137.0 598.0,136.0 599.0,135.0 600.0,133.0 601.0,135.0 602.0,131.0 603.0,131.0 604.0,126.0 605.0,130.0 606.0,122.0 607.0,121.0 608.0,112.0 609.0,124.0 610.0,121.0 611.0,108.0 612.0,106.0 613.0,105.0 614.0,104.0 615.0,101.0 616.0,100.0 617.0,91.0 618.0,92.0 619.0,90.0 620.0,86.0 621.0,84.0 622.0,84.0 623.0,81.0 624.0,78.0 625.0,80.0 626.0,78.0 627.0,83.0 628.0,85.0 629.0,81.0 630.0,84.0 631.0,88.0 632.0,95.0 633.0,97.0 634.0,96.0 635.0,98.0 636.0,102.0 637.0,104.0 638.0,105.0 639.0,107.0 640.0,108.0 641.0,109.0 642.0,110.0 643.0,111.0 644.0,112.0 645.0,113.0 646.0,114.0 647.0,115.0 648.0,116.0 649.0,117.0 650.0,118.0 651.0,119.0 652.0,119.0 653.0,120.0 654.0,121.0 655.0,122.0 656.0,122.0 657.0,123.0 658.0,123.0 659.0,124.0 660.0,125.0 661.0,126.0 662.0,126.0 663.0,127.0 664.0,127.0 665.0,127.0 666.0,127.0 667.0,131.0 668.0,128.0 669.0,117.0 670.0,118.0 671.0,123.0 672.0,124.0 673.0,120.0 674.0,118.0 675.0,121.0" fill="none" stroke="#008000" />
	<polyline points="76.0,5.0 676.0,5.0" fill="none" stroke="#6d6d6d" />
	<polyline points="76.0,305.0 676.0,305.0" fill="none" stroke="#6d6d6d" />
	<polyline points="76.0,305.0 76.0,310.0" fill="none" stroke="#6d6d6d" />
	<polyline points="226.0,305.0 226.0,310.0" fill="none" stroke="#6d6d6d" />
	<polyline points="376.0,305.0 376.0,310.0" fill="none" stroke="#6d6d6d" />
	<polyline points="526.0,305.0 526.0,310.0" fill="none" stroke="#6d6d6d" />
	<polyline points="676.0,305.0 676.0,310.0" fill="none" stroke="#6d6d6d" />
	<polyline points="76.0,5.0 76.0,305.0" fill="none" stroke="#6d6d6d" />
	<polyline points="676.0,5.0 676.0,305.0" fill="none" stroke="#6d6d6d" />
	<polyline points="71.0,5.0 76.0,5.0" fill="none" stroke="#6d6d6d" />
	<polyline points="71.0,80.0 76.0,80.0" fill="none" stroke="#6d6d6d" />
	<polyline points="71.0,155.0 76.0,155.0" fill="none" stroke="#6d6d6d" />
	<polyline points="71.0,230.0 76.0,230.0" fill="none" stroke="#6d6d6d" />
	<polyline points="71.0,305.0 76.0,305.0" fill="none" stroke="#6d6d6d" />
	<text x="76.0" y="328.0" fill="#6d6d6d" font-family="Arial" font-size="9pt" text-anchor="middle">1</text>
	<text x="226.0" y="328.0" fill="#6d6d6d" font-family="Arial" font-size="9pt" text-anchor="middle">150</text>
	<text x="376.0" y="328.0" fill="#6d6d6d" font-family="Arial" font-size="9pt" text-anchor="middle">300</text>
	<text x="526.0" y="328.0" fill="#6d6d6d" font-family="Arial" font-size="9pt" text-anchor="middle">450</text>
	<text x="676.0" y="328.0" fill="#6d6d6d" font-family="Arial" font-size="9pt" text-anchor="middle">600</text>
	<text x="66.0" y="10.0" fill="#6d6d6d" font-family="Arial" font-size="9pt" text-anchor="end">4.39e+04</text>
	<text x="66.0" y="85.0" fill="#6d6d6d" font-family="Arial" font-size="9pt" text-anchor="end">3.29e+04</text>
	<text x="66.0" y="160.0" fill="#6d6d6d" font-family="Arial" font-size="9pt" text-anchor="end">2.19e+04</text>
	<text x="66.0" y="235.0" fill="#6d6d6d" font-family="Arial" font-size="9pt" text-anchor="end">1.1e+04</text>
	<text x="66.0" y="310.0" fill="#6d6d6d" font-family="Arial" font-size="9pt" text-anchor="end">0</text>
</svg>
