<?xml version="1.0" encoding="UTF-8" standalone="no"?>
<!DOCTYPE svg PUBLIC "-//W3C//DTD SVG 1.1//EN" "http://www.w3.org/Graphics/SVG/1.1/DTD/svg11.dtd">
<svg xmlns="http://www.w3.org/2000/svg"  version="1.1" width="715.0" height="406.0" viewBox="-6.0 -13.0 709.0 393.0">
	<desc>LSD Plot - r2_sector_co2_subsidios</desc>
	<polyline points="226.0,6.0 226.0,304.0" fill="none" stroke="#f0f0f0" />
	<polyline points="376.0,6.0 376.0,304.0" fill="none" stroke="#f0f0f0" />
	<polyline points="526.0,6.0 526.0,304.0" fill="none" stroke="#f0f0f0" />
	<polyline points="77.0,80.0 675.0,80.0" fill="none" stroke="#f0f0f0" />
	<polyline points="77.0,155.0 675.0,155.0" fill="none" stroke="#f0f0f0" />
	<polyline points="77.0,230.0 675.0,230.0" fill="none" stroke="#f0f0f0" />
	<text x="5.0" y="353.0" font-family="Arial" font-size="9pt">Sector_Total_Subs_CO2_Emissions_1_1_1</text>
	<text x="299.0" y="353.0" fill="#ff0000" font-family="Arial" font-size="9pt">Sector_Total_Subs_CO2_Emissions_1_1_2</text>
	<text x="5.0" y="370.0" fill="#008000" font-family="Arial" font-size="9pt">Sector_Total_Subs_CO2_Emissions_1_1_3</text>
	<polyline points="76.0,18.0 77.0,11.0 78.0,16.0 79.0,20.0 80.0,14.0 81.0,15.0 82.0,11.0 83.0,11.0 84.0,8.0 85.0,11.0 86.0,13.0 87.0,13.0 88.0,15.0 89.0,13.0 90.0,14.0 91.0,17.0 92.0,19.0 93.0,23.0 94.0,22.0 95.0,25.0 96.0,26.0 97.0,30.0 98.0,34.0 99.0,35.0 100.0,40.0 101.0,42.0 102.0,45.0 103.0,47.0 104.0,50.0 105.0,52.0 106.0,55.0 107.0,57.0 108.0,61.0 109.0,62.0 110.0,65.0 111.0,66.0 112.0,69.0 113.0,71.0 114.0,73.0 115.0,75.0 116.0,78.0 117.0,79.0 118.0,82.0 119.0,84.0 120.0,86.0 121.0,88.0 122.0,90.0 123.0,92.0 124.0,94.0 125.0,96.0 126.0,98.0 127.0,100.0 128.0,102.0 129.0,104.0 130.0,105.0 131.0,107.0 132.0,109.0 133.0,111.0 134.0,113.0 135.0,114.0 136.0,116.0 137.0,117.0 138.0,119.0 139.0,121.0 140.0,123.0 141.0,117.0 142.0,119.0 143.0,120.0 144.0,112.0 145.0,120.0 146.0,120.0 147.0,109.0 148.0,112.0 149.0,118.0 150.0,115.0 151.0,115.0 152.0,114.0 153.0,114.0 154.0,114.0 155.0,113.0 156.0,114.0 157.0,115.0 158.0,116.0 159.0,113.0 160.0,111.0 161.0,118.0 162.0,120.0 163.0,121.0 164.0,115.0 165.0,120.0 166.0,126.0 167.0,124.0 168.0,127.0 169.0,129.0 170.0,132.0 171.0,133.0 172.0,135.0 173.0,136.0 174.0,137.0 175.0,139.0 176.0,140.0 177.0,142.0 178.0,144.0 179.0,145.0 180.0,147.0 181.0,148.0 182.0,150.0 183.0,151.0 184.0,153.0 185.0,154.0 186.0,155.0 187.0,156.0 188.0,157.0 189.0,159.0 190.0,160.0 191.0,162.0 192.0,162.0 193.0,164.0 194.0,165.0 195.0,166.0 196.0,168.0 197.0,169.0 198.0,170.0 199.0,171.0 200.0,173.0 201.0,168.0 202.0,167.0 203.0,172.0 204.0,164.0 205.0,163.0 206.0,168.0 207.0,165.0 208.0,163.0 209.0,166.0 210.0,167.0 211.0,167.0 212.0,166.0 213.0,161.0 214.0,159.0 215.0,156.0 216.0,156.0 217.0,150.0 218.0,152.0 219.0,148.0 220.0,148.0 221.0,151.0 222.0,146.0 223.0,142.0 224.0,147.0 225.0,145.0 226.0,141.0 227.0,145.0 228.0,145.0 229.0,140.0 230.0,143.0 231.0,147.0 232.0,145.0 233.0,147.0 234.0,148.0 235.0,150.0 236.0,151.0 237.0,153.0 238.0,155.0 239.0,156.0 240.0,158.0 241.0,159.0 242.0,160.0 243.0,162.0 244.0,163.0 245.0,164.0 246.0,165.0 247.0,166.0 248.0,166.0 249.0,167.0 250.0,168.0 251.0,169.0 252.0,170.0 253.0,170.0 254.0,171.0 255.0,172.0 256.0,172.0 257.0,173.0 258.0,173.0 259.0,174.0 260.0,174.0 261.0,175.0 262.0,175.0 263.0,175.0 264.0,176.0 265.0,172.0 266.0,171.0 267.0,175.0 268.0,176.0 269.0,174.0 270.0,175.0 271.0,176.0 272.0,176.0 273.0,170.0 274.0,168.0 275.0,165.0 276.0,164.0 277.0,167.0 278.0,159.0 279.0,159.0 280.0,158.0 281.0,158.0 282.0,155.0 283.0,155.0 284.0,153.0 285.0,148.0 286.0,151.0 287.0,151.0 288.0,146.0 289.0,142.0 290.0,146.0 291.0,145.0 292.0,140.0 293.0,138.0 294.0,141.0 295.0,138.0 296.0,138.0 297.0,145.0 298.0,143.0 299.0,146.0 300.0,147.0 301.0,149.0 302.0,151.0 303.0,152.0 304.0,154.0 305.0,156.0 306.0,157.0 307.0,158.0 308.0,159.0 309.0,160.0 310.0,161.0 311.0,162.0 312.0,163.0 313.0,164.0 314.0,164.0 315.0,165.0 316.0,166.0 317.0,166.0 318.0,167.0 319.0,167.0 320.0,168.0 321.0,168.0 322.0,169.0 323.0,169.0 324.0,169.0 325.0,170.0 326.0,170.0 327.0,171.0 328.0,171.0 329.0,171.0 330.0,172.0 331.0,172.0 332.0,173.0 333.0,172.0 334.0,169.0 335.0,165.0 336.0,160.0 337.0,163.0 338.0,162.0 339.0,160.0 340.0,164.0 341.0,162.0 342.0,164.0 343.0,164.0 344.0,163.0 345.0,161.0 346.0,158.0 347.0,154.0 348.0,153.0 349.0,151.0 350.0,146.0 351.0,148.0 352.0,146.0 353.0,148.0 354.0,150.0 355.0,148.0 356.0,146.0 357.0,146.0 358.0,147.0 359.0,145.0 360.0,143.0 361.0,140.0 362.0,138.0 363.0,141.0 364.0,142.0 365.0,142.0 366.0,145.0 367.0,147.0 368.0,149.0 369.0,152.0 370.0,153.0 371.0,155.0 372.0,156.0 373.0,157.0 374.0,159.0 375.0,160.0 376.0,161.0 377.0,162.0 378.0,163.0 379.0,164.0 380.0,165.0 381.0,166.0 382.0,167.0 383.0,168.0 384.0,168.0 385.0,169.0 386.0,170.0 387.0,170.0 388.0,171.0 389.0,171.0 390.0,172.0 391.0,172.0 392.0,173.0 393.0,173.0 394.0,173.0 395.0,173.0 396.0,173.0 397.0,173.0 398.0,174.0 399.0,174.0 400.0,174.0 401.0,175.0 402.0,175.0 403.0,176.0 404.0,176.0 405.0,174.0 406.0,172.0 407.0,167.0 408.0,166.0 409.0,168.0 410.0,164.0 411.0,163.0 412.0,163.0 413.0,160.0 414.0,158.0 415.0,159.0 416.0,157.0 417.0,155.0 418.0,150.0 419.0,148.0 420.0,146.0 421.0,144.0 422.0,145.0 423.0,142.0 424.0,141.0 425.0,139.0 426.0,140.0 427.0,141.0 428.0,142.0 429.0,142.0 430.0,144.0 431.0,146.0 432.0,147.0 433.0,149.0 434.0,151.0 435.0,153.0 436.0,155.0 437.0,156.0 438.0,158.0 439.0,159.0 440.0,161.0 441.0,162.0 442.0,163.0 443.0,164.0 444.0,165.0 445.0,166.0 446.0,167.0 447.0,168.0 448.0,169.0 449.0,170.0 450.0,170.0 451.0,172.0 452.0,172.0 453.0,173.0 454.0,173.0 455.0,174.0 456.0,174.0 457.0,175.0 458.0,175.0 459.0,176.0 460.0,176.0 461.0,177.0 462.0,177.0 463.0,177.0 464.0,178.0 465.0,178.0 466.0,177.0 467.0,176.0 468.0,176.0 469.0,175.0 470.0,176.0 471.0,174.0 472.0,174.0 473.0,176.0 474.0,175.0 475.0,175.0 476.0,175.0 477.0,171.0 478.0,166.0 479.0,162.0 480.0,159.0 481.0,157.0 482.0,156.0 483.0,152.0 484.0,150.0 485.0,152.0 486.0,151.0 487.0,148.0 488.0,148.0 489.0,147.0 490.0,142.0 491.0,141.0 492.0,141.0 493.0,141.0 494.0,136.0 495.0,135.0 496.0,139.0 497.0,142.0 498.0,141.0 499.0,143.0 500.0,145.0 501.0,148.0 502.0,149.0 503.0,151.0 504.0,153.0 505.0,155.0 506.0,156.0 507.0,157.0 508.0,159.0 509.0,160.0 510.0,162.0 511.0,163.0 512.0,164.0 513.0,165.0 514.0,166.0 515.0,166.0 516.0,167.0 517.0,168.0 518.0,169.0 519.0,169.0 520.0,170.0 521.0,171.0 522.0,171.0 523.0,172.0 524.0,172.0 525.0,172.0 526.0,173.0 527.0,173.0 528.0,173.0 529.0,174.0 530.0,174.0 531.0,174.0 532.0,175.0 533.0,175.0 534.0,175.0 535.0,176.0 536.0,177.0 537.0,176.0 538.0,171.0 539.0,169.0 540.0,167.0 541.0,166.0 542.0,167.0 543.0,162.0 544.0,162.0 545.0,163.0 546.0,162.0 547.0,160.0 548.0,160.0 549.0,156.0 550.0,152.0 551.0,151.0 552.0,147.0 553.0,147.0 554.0,144.0 555.0,143.0 556.0,143.0 557.0,143.0 558.0,141.0 559.0,138.0 560.0,139.0 561.0,139.0 562.0,137.0 563.0,138.0 564.0,138.0 565.0,135.0 566.0,137.0 567.0,141.0 568.0,141.0 569.0,145.0 570.0,147.0 571.0,149.0 572.0,150.0 573.0,152.0 574.0,153.0 575.0,154.0 576.0,156.0 577.0,157.0 578.0,158.0 579.0,159.0 580.0,160.0 581.0,161.0 582.0,162.0 583.0,163.0 584.0,164.0 585.0,165.0 586.0,166.0 587.0,166.0 588.0,167.0 589.0,167.0 590.0,168.0 591.0,169.0 592.0,169.0 593.0,170.0 594.0,171.0 595.0,171.0 596.0,171.0 597.0,172.0 598.0,172.0 599.0,172.0 600.0,173.0 601.0,173.0 602.0,173.0 603.0,174.0 604.0,174.0 605.0,175.0 606.0,175.0 607.0,175.0 608.0,174.0 609.0,172.0 610.0,169.0 611.0,164.0 612.0,163.0 613.0,162.0 614.0,161.0 615.0,158.0 616.0,157.0 617.0,157.0 618.0,153.0 619.0,150.0 620.0,151.0 621.0,149.0 622.0,147.0 623.0,148.0 624.0,146.0 625.0,144.0 626.0,143.0 627.0,143.0 628.0,143.0 629.0,144.0 630.0,144.0 631.0,145.0 632.0,145.0 633.0,147.0 634.0,148.0 635.0,150.0 636.0,153.0 637.0,154.0 638.0,156.0 639.0,157.0 640.0,159.0 641.0,160.0 642.0,161.0 643.0,162.0 644.0,163.0 645.0,164.0 646.0,165.0 647.0,166.0 648.0,166.0 649.0,167.0 650.0,168.0 651.0,169.0 652.0,169.0 653.0,170.0 654.0,171.0 655.0,172.0 656.0,172.0 657.0,172.0 658.0,173.0 659.0,173.0 660.0,174.0 661.0,174.0 662.0,174.0 663.0,175.0 664.0,175.0 665.0,176.0 666.0,176.0 667.0,176.0 668.0,177.0 669.0,177.0 670.0,174.0 671.0,172.0 672.0,171.0 673.0,170.0 674.0,169.0 675.0,168.0" fill="none" stroke="#000000" />
	<polyline points="76.0,274.0 77.0,268.0 78.0,268.0 79.0,267.0 80.0,265.0 81.0,265.0 82.0,261.0 83.0,252.0 84.0,248.0 85.0,242.0 86.0,238.0 87.0,237.0 88.0,250.0 89.0,252.0 90.0,257.0 91.0,263.0 92.0,269.0 93.0,271.0 94.0,271.0 95.0,280.0 96.0,286.0 97.0,288.0 98.0,290.0 99.0,294.0 100.0,296.0 101.0,296.0 102.0,297.0 103.0,298.0 104.0,299.0 105.0,298.0 106.0,300.0 107.0,300.0 108.0,302.0 109.0,301.0 110.0,301.0 111.0,300.0 112.0,299.0 113.0,298.0 114.0,297.0 115.0,297.0 116.0,298.0 117.0,300.0 118.0,300.0 119.0,302.0 120.0,301.0 121.0,301.0 122.0,302.0 123.0,301.0 124.0,303.0 125.0,303.0 126.0,303.0 127.0,303.0 128.0,303.0 129.0,305.0 130.0,304.0 131.0,304.0 132.0,303.0 133.0,301.0 134.0,300.0 135.0,300.0 136.0,299.0 137.0,300.0 138.0,285.0 139.0,275.0 140.0,264.0 141.0,262.0 142.0,261.0 143.0,264.0 144.0,265.0 145.0,273.0 146.0,280.0 147.0,283.0 148.0,282.0 149.0,280.0 150.0,271.0 151.0,258.0 152.0,254.0 153.0,255.0 154.0,254.0 155.0,253.0 156.0,250.0 157.0,256.0 158.0,263.0 159.0,265.0 160.0,269.0 161.0,271.0 162.0,280.0 163.0,286.0 164.0,290.0 165.0,295.0 166.0,297.0 167.0,299.0 168.0,298.0 169.0,296.0 170.0,294.0 171.0,293.0 172.0,294.0 173.0,295.0 174.0,297.0 175.0,299.0 176.0,303.0 177.0,303.0 178.0,304.0 179.0,304.0 180.0,302.0 181.0,303.0 182.0,303.0 183.0,302.0 184.0,303.0 185.0,303.0 186.0,304.0 187.0,304.0 188.0,304.0 189.0,305.0 190.0,305.0 191.0,305.0 192.0,305.0 193.0,303.0 194.0,303.0 195.0,303.0 196.0,303.0 197.0,303.0 198.0,294.0 199.0,285.0 200.0,276.0 201.0,275.0 202.0,273.0 203.0,275.0 204.0,278.0 205.0,284.0 206.0,293.0 207.0,294.0 208.0,294.0 209.0,291.0 210.0,274.0 211.0,262.0 212.0,260.0 213.0,260.0 214.0,259.0 215.0,258.0 216.0,256.0 217.0,259.0 218.0,268.0 219.0,269.0 220.0,267.0 221.0,266.0 222.0,269.0 223.0,270.0 224.0,268.0 225.0,270.0 226.0,271.0 227.0,273.0 228.0,280.0 229.0,282.0 230.0,285.0 231.0,286.0 232.0,289.0 233.0,291.0 234.0,294.0 235.0,299.0 236.0,303.0 237.0,304.0 238.0,305.0 239.0,305.0 240.0,304.0 241.0,304.0 242.0,304.0 243.0,303.0 244.0,303.0 245.0,303.0 246.0,304.0 247.0,304.0 248.0,304.0 249.0,305.0 250.0,305.0 251.0,305.0 252.0,305.0 253.0,305.0 254.0,305.0 255.0,304.0 256.0,303.0 257.0,303.0 258.0,304.0 259.0,302.0 260.0,300.0 261.0,300.0 262.0,299.0 263.0,299.0 264.0,299.0 265.0,301.0 266.0,302.0 267.0,302.0 268.0,303.0 269.0,303.0 270.0,289.0 271.0,276.0 272.0,271.0 273.0,268.0 274.0,268.0 275.0,267.0 276.0,267.0 277.0,266.0 278.0,272.0 279.0,274.0 280.0,271.0 281.0,269.0 282.0,268.0 283.0,268.0 284.0,265.0 285.0,266.0 286.0,267.0 287.0,266.0 288.0,263.0 289.0,264.0 290.0,264.0 291.0,270.0 292.0,271.0 293.0,275.0 294.0,287.0 295.0,292.0 296.0,292.0 297.0,296.0 298.0,298.0 299.0,301.0 300.0,302.0 301.0,303.0 302.0,303.0 303.0,303.0 304.0,303.0 305.0,303.0 306.0,304.0 307.0,304.0 308.0,304.0 309.0,305.0 310.0,305.0 311.0,305.0 312.0,305.0 313.0,305.0 314.0,305.0 315.0,305.0 316.0,304.0 317.0,304.0 318.0,304.0 319.0,304.0 320.0,304.0 321.0,304.0 322.0,304.0 323.0,304.0 324.0,304.0 325.0,304.0 326.0,304.0 327.0,304.0 328.0,305.0 329.0,305.0 330.0,302.0 331.0,289.0 332.0,281.0 333.0,281.0 334.0,281.0 335.0,280.0 336.0,280.0 337.0,288.0 338.0,296.0 339.0,295.0 340.0,293.0 341.0,291.0 342.0,276.0 343.0,270.0 344.0,264.0 345.0,262.0 346.0,260.0 347.0,260.0 348.0,260.0 349.0,262.0 350.0,262.0 351.0,265.0 352.0,265.0 353.0,266.0 354.0,269.0 355.0,269.0 356.0,267.0 357.0,268.0 358.0,269.0 359.0,270.0 360.0,272.0 361.0,279.0 362.0,286.0 363.0,287.0 364.0,289.0 365.0,293.0 366.0,301.0 367.0,302.0 368.0,304.0 369.0,304.0 370.0,304.0 371.0,304.0 372.0,304.0 373.0,304.0 374.0,304.0 375.0,304.0 376.0,304.0 377.0,304.0 378.0,305.0 379.0,305.0 380.0,305.0 381.0,305.0 382.0,305.0 383.0,305.0 384.0,305.0 385.0,305.0 386.0,305.0 387.0,305.0 388.0,305.0 389.0,305.0 390.0,303.0 391.0,298.0 392.0,298.0 393.0,298.0 394.0,298.0 395.0,298.0 396.0,300.0 397.0,304.0 398.0,304.0 399.0,303.0 400.0,302.0 401.0,302.0 402.0,292.0 403.0,280.0 404.0,272.0 405.0,273.0 406.0,272.0 407.0,272.0 408.0,271.0 409.0,272.0 410.0,274.0 411.0,274.0 412.0,272.0 413.0,273.0 414.0,271.0 415.0,270.0 416.0,269.0 417.0,268.0 418.0,268.0 419.0,268.0 420.0,267.0 421.0,268.0 422.0,268.0 423.0,271.0 424.0,271.0 425.0,273.0 426.0,281.0 427.0,284.0 428.0,286.0 429.0,292.0 430.0,292.0 431.0,296.0 432.0,300.0 433.0,303.0 434.0,303.0 435.0,303.0 436.0,304.0 437.0,304.0 438.0,304.0 439.0,304.0 440.0,305.0 441.0,305.0 442.0,305.0 443.0,305.0 444.0,305.0 445.0,305.0 446.0,305.0 447.0,305.0 448.0,305.0 449.0,305.0 450.0,304.0 451.0,303.0 452.0,303.0 453.0,303.0 454.0,303.0 455.0,303.0 456.0,304.0 457.0,304.0 458.0,304.0 459.0,304.0 460.0,304.0 461.0,304.0 462.0,303.0 463.0,293.0 464.0,290.0 465.0,289.0 466.0,289.0 467.0,287.0 468.0,287.0 469.0,294.0 470.0,294.0 471.0,293.0 472.0,290.0 473.0,291.0 474.0,279.0 475.0,269.0 476.0,268.0 477.0,272.0 478.0,269.0 479.0,269.0 480.0,270.0 481.0,267.0 482.0,266.0 483.0,269.0 484.0,268.0 485.0,269.0 486.0,270.0 487.0,269.0 488.0,268.0 489.0,267.0 490.0,268.0 491.0,268.0 492.0,268.0 493.0,274.0 494.0,281.0 495.0,283.0 496.0,284.0 497.0,289.0 498.0,296.0 499.0,299.0 500.0,301.0 501.0,301.0 502.0,301.0 503.0,302.0 504.0,303.0 505.0,304.0 506.0,304.0 507.0,305.0 508.0,305.0 509.0,304.0 510.0,304.0 511.0,304.0 512.0,304.0 513.0,304.0 514.0,304.0 515.0,304.0 516.0,305.0 517.0,304.0 518.0,304.0 519.0,305.0 520.0,304.0 521.0,304.0 522.0,303.0 523.0,303.0 524.0,303.0 525.0,303.0 526.0,302.0 527.0,301.0 528.0,302.0 529.0,303.0 530.0,303.0 531.0,302.0 532.0,302.0 533.0,302.0 534.0,301.0 535.0,284.0 536.0,278.0 537.0,276.0 538.0,276.0 539.0,275.0 540.0,273.0 541.0,277.0 542.0,281.0 543.0,278.0 544.0,277.0 545.0,277.0 546.0,272.0 547.0,267.0 548.0,266.0 549.0,267.0 550.0,267.0 551.0,269.0 552.0,269.0 553.0,269.0 554.0,268.0 555.0,270.0 556.0,270.0 557.0,271.0 558.0,274.0 559.0,274.0 560.0,273.0 561.0,274.0 562.0,275.0 563.0,276.0 564.0,284.0 565.0,291.0 566.0,296.0 567.0,298.0 568.0,299.0 569.0,300.0 570.0,300.0 571.0,301.0 572.0,302.0 573.0,302.0 574.0,303.0 575.0,304.0 576.0,304.0 577.0,304.0 578.0,304.0 579.0,305.0 580.0,304.0 581.0,304.0 582.0,303.0 583.0,302.0 584.0,303.0 585.0,302.0 586.0,303.0 587.0,302.0 588.0,303.0 589.0,303.0 590.0,304.0 591.0,304.0 592.0,304.0 593.0,304.0 594.0,304.0 595.0,301.0 596.0,301.0 597.0,301.0 598.0,301.0 599.0,300.0 600.0,300.0 601.0,302.0 602.0,302.0 603.0,300.0 604.0,300.0 605.0,299.0 606.0,292.0 607.0,276.0 608.0,273.0 609.0,272.0 610.0,272.0 611.0,271.0 612.0,269.0 613.0,270.0 614.0,271.0 615.0,270.0 616.0,270.0 617.0,272.0 618.0,272.0 619.0,271.0 620.0,273.0 621.0,272.0 622.0,272.0 623.0,272.0 624.0,272.0 625.0,271.0 626.0,277.0 627.0,278.0 628.0,277.0 629.0,280.0 630.0,285.0 631.0,288.0 632.0,289.0 633.0,292.0 634.0,294.0 635.0,297.0 636.0,301.0 637.0,302.0 638.0,303.0 639.0,304.0 640.0,304.0 641.0,303.0 642.0,302.0 643.0,302.0 644.0,302.0 645.0,302.0 646.0,302.0 647.0,301.0 648.0,302.0 649.0,303.0 650.0,303.0 651.0,303.0 652.0,304.0 653.0,304.0 654.0,304.0 655.0,304.0 656.0,304.0 657.0,304.0 658.0,304.0 659.0,304.0 660.0,304.0 661.0,304.0 662.0,304.0 663.0,303.0 664.0,302.0 665.0,302.0 666.0,301.0 667.0,290.0 668.0,287.0 669.0,286.0 670.0,286.0 671.0,285.0 672.0,285.0 673.0,289.0 674.0,291.0 675.0,289.0" fill="none" stroke="#ff0000" />
	<polyline points="76.0,47.0 77.0,54.0 78.0,51.0 79.0,33.0 80.0,30.0 81.0,34.0 82.0,30.0 83.0,19.0 84.0,25.0 85.0,25.0 86.0,24.0 87.0,22.0 88.0,23.0 89.0,26.0 90.0,24.0 91.0,26.0 92.0,33.0 93.0,38.0 94.0,43.0 95.0,41.0 96.0,44.0 97.0,48.0 98.0,56.0 99.0,60.0 100.0,61.0 101.0,65.0 102.0,67.0 103.0,69.0 104.0,72.0 105.0,76.0 106.0,77.0 107.0,80.0 108.0,82.0 109.0,85.0 110.0,87.0 111.0,89.0 112.0,91.0 113.0,93.0 114.0,94.0 115.0,96.0 116.0,98.0 117.0,100.0 118.0,101.0 119.0,103.0 120.0,105.0 121.0,107.0 122.0,108.0 123.0,110.0 124.0,111.0 125.0,113.0 126.0,114.0 127.0,116.0 128.0,117.0 129.0,118.0 130.0,120.0 131.0,121.0 132.0,123.0 133.0,124.0 134.0,124.0 135.0,126.0 136.0,127.0 137.0,122.0 138.0,128.0 139.0,133.0 140.0,121.0 141.0,114.0 142.0,121.0 143.0,123.0 144.0,130.0 145.0,124.0 146.0,121.0 147.0,121.0 148.0,119.0 149.0,118.0 150.0,114.0 151.0,114.0 152.0,109.0 153.0,105.0 154.0,107.0 155.0,103.0 156.0,103.0 157.0,108.0 158.0,109.0 159.0,114.0 160.0,113.0 161.0,112.0 162.0,112.0 163.0,113.0 164.0,120.0 165.0,124.0 166.0,122.0 167.0,130.0 168.0,130.0 169.0,131.0 170.0,132.0 171.0,134.0 172.0,135.0 173.0,137.0 174.0,138.0 175.0,140.0 176.0,141.0 177.0,143.0 178.0,145.0 179.0,146.0 180.0,148.0 181.0,149.0 182.0,150.0 183.0,152.0 184.0,153.0 185.0,154.0 186.0,155.0 187.0,157.0 188.0,158.0 189.0,159.0 190.0,160.0 191.0,161.0 192.0,162.0 193.0,163.0 194.0,164.0 195.0,165.0 196.0,166.0 197.0,167.0 198.0,169.0 199.0,171.0 200.0,167.0 201.0,166.0 202.0,169.0 203.0,168.0 204.0,173.0 205.0,173.0 206.0,171.0 207.0,175.0 208.0,177.0 209.0,177.0 210.0,179.0 211.0,177.0 212.0,171.0 213.0,164.0 214.0,161.0 215.0,162.0 216.0,161.0 217.0,158.0 218.0,158.0 219.0,160.0 220.0,163.0 221.0,159.0 222.0,159.0 223.0,160.0 224.0,160.0 225.0,160.0 226.0,162.0 227.0,161.0 228.0,162.0 229.0,164.0 230.0,164.0 231.0,164.0 232.0,170.0 233.0,172.0 234.0,173.0 235.0,173.0 236.0,174.0 237.0,175.0 238.0,177.0 239.0,178.0 240.0,179.0 241.0,180.0 242.0,180.0 243.0,181.0 244.0,182.0 245.0,183.0 246.0,184.0 247.0,185.0 248.0,186.0 249.0,187.0 250.0,187.0 251.0,188.0 252.0,189.0 253.0,189.0 254.0,190.0 255.0,191.0 256.0,191.0 257.0,192.0 258.0,192.0 259.0,193.0 260.0,194.0 261.0,194.0 262.0,190.0 263.0,191.0 264.0,190.0 265.0,192.0 266.0,194.0 267.0,192.0 268.0,193.0 269.0,195.0 270.0,196.0 271.0,201.0 272.0,184.0 273.0,186.0 274.0,191.0 275.0,193.0 276.0,195.0 277.0,187.0 278.0,188.0 279.0,187.0 280.0,186.0 281.0,185.0 282.0,183.0 283.0,184.0 284.0,179.0 285.0,177.0 286.0,172.0 287.0,169.0 288.0,172.0 289.0,168.0 290.0,169.0 291.0,172.0 292.0,175.0 293.0,174.0 294.0,171.0 295.0,175.0 296.0,182.0 297.0,180.0 298.0,184.0 299.0,182.0 300.0,183.0 301.0,184.0 302.0,185.0 303.0,187.0 304.0,187.0 305.0,188.0 306.0,189.0 307.0,190.0 308.0,190.0 309.0,191.0 310.0,192.0 311.0,192.0 312.0,193.0 313.0,194.0 314.0,194.0 315.0,195.0 316.0,195.0 317.0,196.0 318.0,196.0 319.0,197.0 320.0,197.0 321.0,198.0 322.0,198.0 323.0,198.0 324.0,199.0 325.0,199.0 326.0,200.0 327.0,200.0 328.0,201.0 329.0,201.0 330.0,202.0 331.0,204.0 332.0,201.0 333.0,190.0 334.0,194.0 335.0,200.0 336.0,202.0 337.0,196.0 338.0,193.0 339.0,200.0 340.0,200.0 341.0,202.0 342.0,201.0 343.0,201.0 344.0,193.0 345.0,192.0 346.0,188.0 347.0,190.0 348.0,188.0 349.0,180.0 350.0,182.0 351.0,181.0 352.0,181.0 353.0,179.0 354.0,179.0 355.0,178.0 356.0,180.0 357.0,179.0 358.0,177.0 359.0,178.0 360.0,178.0 361.0,177.0 362.0,178.0 363.0,180.0 364.0,185.0 365.0,190.0 366.0,190.0 367.0,190.0 368.0,190.0 369.0,191.0 370.0,192.0 371.0,193.0 372.0,195.0 373.0,195.0 374.0,195.0 375.0,196.0 376.0,196.0 377.0,197.0 378.0,198.0 379.0,198.0 380.0,199.0 381.0,199.0 382.0,200.0 383.0,200.0 384.0,201.0 385.0,201.0 386.0,202.0 387.0,202.0 388.0,202.0 389.0,203.0 390.0,203.0 391.0,204.0 392.0,202.0 393.0,200.0 394.0,202.0 395.0,204.0 396.0,204.0 397.0,203.0 398.0,204.0 399.0,204.0 400.0,205.0 401.0,205.0 402.0,206.0 403.0,206.0 404.0,199.0 405.0,196.0 406.0,197.0 407.0,197.0 408.0,196.0 409.0,192.0 410.0,193.0 411.0,193.0 412.0,194.0 413.0,191.0 414.0,187.0 415.0,187.0 416.0,186.0 417.0,181.0 418.0,177.0 419.0,179.0 420.0,175.0 421.0,175.0 422.0,174.0 423.0,178.0 424.0,178.0 425.0,178.0 426.0,176.0 427.0,177.0 428.0,181.0 429.0,185.0 430.0,186.0 431.0,187.0 432.0,188.0 433.0,189.0 434.0,190.0 435.0,191.0 436.0,192.0 437.0,193.0 438.0,193.0 439.0,194.0 440.0,195.0 441.0,195.0 442.0,196.0 443.0,197.0 444.0,197.0 445.0,198.0 446.0,198.0 447.0,199.0 448.0,200.0 449.0,200.0 450.0,201.0 451.0,201.0 452.0,201.0 453.0,202.0 454.0,202.0 455.0,202.0 456.0,203.0 457.0,203.0 458.0,204.0 459.0,204.0 460.0,204.0 461.0,205.0 462.0,205.0 463.0,206.0 464.0,206.0 465.0,201.0 466.0,201.0 467.0,203.0 468.0,205.0 469.0,201.0 470.0,200.0 471.0,201.0 472.0,203.0 473.0,200.0 474.0,204.0 475.0,203.0 476.0,196.0 477.0,191.0 478.0,188.0 479.0,188.0 480.0,188.0 481.0,184.0 482.0,182.0 483.0,185.0 484.0,183.0 485.0,181.0 486.0,181.0 487.0,181.0 488.0,181.0 489.0,179.0 490.0,178.0 491.0,176.0 492.0,174.0 493.0,174.0 494.0,176.0 495.0,178.0 496.0,180.0 497.0,184.0 498.0,188.0 499.0,188.0 500.0,187.0 501.0,188.0 502.0,189.0 503.0,191.0 504.0,192.0 505.0,193.0 506.0,193.0 507.0,194.0 508.0,195.0 509.0,196.0 510.0,197.0 511.0,197.0 512.0,198.0 513.0,198.0 514.0,199.0 515.0,200.0 516.0,200.0 517.0,201.0 518.0,201.0 519.0,202.0 520.0,202.0 521.0,202.0 522.0,203.0 523.0,203.0 524.0,203.0 525.0,203.0 526.0,204.0 527.0,204.0 528.0,204.0 529.0,204.0 530.0,205.0 531.0,205.0 532.0,205.0 533.0,206.0 534.0,206.0 535.0,208.0 536.0,207.0 537.0,195.0 538.0,198.0 539.0,202.0 540.0,203.0 541.0,198.0 542.0,195.0 543.0,200.0 544.0,199.0 545.0,197.0 546.0,195.0 547.0,196.0 548.0,190.0 549.0,187.0 550.0,186.0 551.0,184.0 552.0,182.0 553.0,180.0 554.0,177.0 555.0,179.0 556.0,180.0 557.0,178.0 558.0,178.0 559.0,178.0 560.0,180.0 561.0,179.0 562.0,179.0 563.0,180.0 564.0,180.0 565.0,181.0 566.0,182.0 567.0,186.0 568.0,192.0 569.0,192.0 570.0,191.0 571.0,191.0 572.0,192.0 573.0,194.0 574.0,195.0 575.0,196.0 576.0,197.0 577.0,198.0 578.0,199.0 579.0,200.0 580.0,201.0 581.0,201.0 582.0,202.0 583.0,202.0 584.0,202.0 585.0,203.0 586.0,203.0 587.0,204.0 588.0,203.0 589.0,204.0 590.0,204.0 591.0,205.0 592.0,205.0 593.0,205.0 594.0,205.0 595.0,206.0 596.0,206.0 597.0,205.0 598.0,206.0 599.0,207.0 600.0,206.0 601.0,206.0 602.0,207.0 603.0,208.0 604.0,207.0 605.0,207.0 606.0,206.0 607.0,206.0 608.0,201.0 609.0,196.0 610.0,197.0 611.0,199.0 612.0,198.0 613.0,194.0 614.0,193.0 615.0,195.0 616.0,195.0 617.0,190.0 618.0,189.0 619.0,189.0 620.0,187.0 621.0,184.0 622.0,184.0 623.0,185.0 624.0,183.0 625.0,182.0 626.0,183.0 627.0,184.0 628.0,187.0 629.0,185.0 630.0,185.0 631.0,187.0 632.0,192.0 633.0,193.0 634.0,193.0 635.0,193.0 636.0,196.0 637.0,197.0 638.0,198.0 639.0,198.0 640.0,199.0 641.0,200.0 642.0,200.0 643.0,201.0 644.0,201.0 645.0,202.0 646.0,202.0 647.0,203.0 648.0,203.0 649.0,204.0 650.0,204.0 651.0,205.0 652.0,205.0 653.0,206.0 654.0,206.0 655.0,206.0 656.0,207.0 657.0,207.0 658.0,207.0 659.0,207.0 660.0,208.0 661.0,209.0 662.0,209.0 663.0,209.0 664.0,209.0 665.0,209.0 666.0,209.0 667.0,211.0 668.0,210.0 669.0,204.0 670.0,205.0 671.0,207.0 672.0,208.0 673.0,206.0 674.0,204.0 675.0,206.0" fill="none" stroke="#008000" />
	<polyline points="76.0,5.0 676.0,5.0" fill="none" stroke="#6d6d6d" />
	<polyline points="76.0,305.0 676.0,305.0" fill="none" stroke="#6d6d6d" />
	<polyline points="76.0,305.0 76.0,310.0" fill="none" stroke="#6d6d6d" />
	<polyline points="226.0,305.0 226.0,310.0" fill="none" stroke="#6d6d6d" />
	<polyline points="376.0,305.0 376.0,310.0" fill="none" stroke="#6d6d6d" />
	<polyline points="526.0,305.0 526.0,310.0" fill="none" stroke="#6d6d6d" />
	<polyline points="676.0,305.0 676.0,310.0" fill="none" stroke="#6d6d6d" />
	<polyline points="76.0,5.0 76.0,305.0" fill="none" stroke="#6d6d6d" />
	<polyline points="676.0,5.0 676.0,305.0" fill="none" stroke="#6d6d6d" />
	<polyline points="71.0,5.0 76.0,5.0" fill="none" stroke="#6d6d6d" />
	<polyline points="71.0,80.0 76.0,80.0" fill="none" stroke="#6d6d6d" />
	<polyline points="71.0,155.0 76.0,155.0" fill="none" stroke="#6d6d6d" />
	<polyline points="71.0,230.0 76.0,230.0" fill="none" stroke="#6d6d6d" />
	<polyline points="71.0,305.0 76.0,305.0" fill="none" stroke="#6d6d6d" />
	<text x="76.0" y="328.0" fill="#6d6d6d" font-family="Arial" font-size="9pt" text-anchor="middle">1</text>
	<text x="226.0" y="328.0" fill="#6d6d6d" font-family="Arial" font-size="9pt" text-anchor="middle">150</text>
	<text x="376.0" y="328.0" fill="#6d6d6d" font-family="Arial" font-size="9pt" text-anchor="middle">300</text>
	<text x="526.0" y="328.0" fill="#6d6d6d" font-family="Arial" font-size="9pt" text-anchor="middle">450</text>
	<text x="676.0" y="328.0" fill="#6d6d6d" font-family="Arial" font-size="9pt" text-anchor="middle">600</text>
	<text x="66.0" y="10.0" fill="#6d6d6d" font-family="Arial" font-size="9pt" text-anchor="end">8.16e+04</text>
	<text x="66.0" y="85.0" fill="#6d6d6d" font-family="Arial" font-size="9pt" text-anchor="end">6.12e+04</text>
	<text x="66.0" y="160.0" fill="#6d6d6d" font-family="Arial" font-size="9pt" text-anchor="end">4.08e+04</text>
	<text x="66.0" y="235.0" fill="#6d6d6d" font-family="Arial" font-size="9pt" text-anchor="end">2.04e+04</text>
	<text x="66.0" y="310.0" fill="#6d6d6d" font-family="Arial" font-size="9pt" text-anchor="end">0</text>
</svg>
