<?xml version="1.0" encoding="UTF-8" standalone="no"?>
<!DOCTYPE svg PUBLIC "-//W3C//DTD SVG 1.1//EN" "http://www.w3.org/Graphics/SVG/1.1/DTD/svg11.dtd">
<svg xmlns="http://www.w3.org/2000/svg"  version="1.1" width="715.0" height="406.0" viewBox="-6.0 -13.0 709.0 393.0">
	<desc>LSD Plot - r4_sector_co2_impostos_subsidios</desc>
	<polyline points="226.0,6.0 226.0,304.0" fill="none" stroke="#f0f0f0" />
	<polyline points="376.0,6.0 376.0,304.0" fill="none" stroke="#f0f0f0" />
	<polyline points="526.0,6.0 526.0,304.0" fill="none" stroke="#f0f0f0" />
	<polyline points="77.0,80.0 675.0,80.0" fill="none" stroke="#f0f0f0" />
	<polyline points="77.0,155.0 675.0,155.0" fill="none" stroke="#f0f0f0" />
	<polyline points="77.0,230.0 675.0,230.0" fill="none" stroke="#f0f0f0" />
	<text x="5.0" y="353.0" font-family="Arial" font-size="9pt">Sector_Total_CO2_Emissions_1_1_1</text>
	<text x="257.0" y="353.0" fill="#ff0000" font-family="Arial" font-size="9pt">Sector_Total_CO2_Emissions_1_1_2</text>
	<text x="5.0" y="370.0" fill="#008000" font-family="Arial" font-size="9pt">Sector_Total_CO2_Emissions_1_1_3</text>
	<polyline points="76.0,18.0 77.0,11.0 78.0,16.0 79.0,20.0 80.0,14.0 81.0,15.0 82.0,11.0 83.0,11.0 84.0,8.0 85.0,11.0 86.0,13.0 87.0,13.0 88.0,15.0 89.0,13.0 90.0,14.0 91.0,17.0 92.0,19.0 93.0,23.0 94.0,22.0 95.0,25.0 96.0,26.0 97.0,30.0 98.0,33.0 99.0,35.0 100.0,40.0 101.0,42.0 102.0,45.0 103.0,47.0 104.0,50.0 105.0,52.0 106.0,55.0 107.0,57.0 108.0,60.0 109.0,62.0 110.0,64.0 111.0,66.0 112.0,69.0 113.0,71.0 114.0,73.0 115.0,75.0 116.0,78.0 117.0,79.0 118.0,82.0 119.0,84.0 120.0,86.0 121.0,88.0 122.0,90.0 123.0,92.0 124.0,94.0 125.0,95.0 126.0,98.0 127.0,100.0 128.0,102.0 129.0,103.0 130.0,105.0 131.0,107.0 132.0,109.0 133.0,110.0 134.0,113.0 135.0,114.0 136.0,116.0 137.0,117.0 138.0,119.0 139.0,121.0 140.0,122.0 141.0,117.0 142.0,119.0 143.0,120.0 144.0,112.0 145.0,120.0 146.0,120.0 147.0,108.0 148.0,112.0 149.0,118.0 150.0,115.0 151.0,115.0 152.0,114.0 153.0,114.0 154.0,114.0 155.0,113.0 156.0,114.0 157.0,115.0 158.0,116.0 159.0,112.0 160.0,111.0 161.0,117.0 162.0,119.0 163.0,120.0 164.0,114.0 165.0,118.0 166.0,125.0 167.0,123.0 168.0,126.0 169.0,127.0 170.0,130.0 171.0,131.0 172.0,132.0 173.0,134.0 174.0,135.0 175.0,137.0 176.0,138.0 177.0,140.0 178.0,141.0 179.0,143.0 180.0,145.0 181.0,146.0 182.0,148.0 183.0,149.0 184.0,151.0 185.0,152.0 186.0,153.0 187.0,154.0 188.0,155.0 189.0,157.0 190.0,158.0 191.0,159.0 192.0,160.0 193.0,162.0 194.0,163.0 195.0,164.0 196.0,165.0 197.0,166.0 198.0,167.0 199.0,168.0 200.0,169.0 201.0,165.0 202.0,164.0 203.0,168.0 204.0,161.0 205.0,159.0 206.0,164.0 207.0,161.0 208.0,159.0 209.0,162.0 210.0,164.0 211.0,163.0 212.0,162.0 213.0,158.0 214.0,156.0 215.0,153.0 216.0,153.0 217.0,147.0 218.0,150.0 219.0,145.0 220.0,146.0 221.0,149.0 222.0,144.0 223.0,140.0 224.0,145.0 225.0,143.0 226.0,139.0 227.0,143.0 228.0,143.0 229.0,138.0 230.0,141.0 231.0,145.0 232.0,143.0 233.0,145.0 234.0,146.0 235.0,148.0 236.0,149.0 237.0,151.0 238.0,152.0 239.0,154.0 240.0,155.0 241.0,157.0 242.0,158.0 243.0,159.0 244.0,160.0 245.0,161.0 246.0,162.0 247.0,163.0 248.0,164.0 249.0,165.0 250.0,165.0 251.0,166.0 252.0,167.0 253.0,168.0 254.0,168.0 255.0,169.0 256.0,169.0 257.0,170.0 258.0,171.0 259.0,171.0 260.0,172.0 261.0,172.0 262.0,172.0 263.0,173.0 264.0,173.0 265.0,170.0 266.0,168.0 267.0,172.0 268.0,173.0 269.0,172.0 270.0,172.0 271.0,173.0 272.0,174.0 273.0,167.0 274.0,166.0 275.0,163.0 276.0,163.0 277.0,165.0 278.0,158.0 279.0,157.0 280.0,156.0 281.0,156.0 282.0,153.0 283.0,154.0 284.0,151.0 285.0,147.0 286.0,150.0 287.0,149.0 288.0,144.0 289.0,141.0 290.0,144.0 291.0,144.0 292.0,139.0 293.0,137.0 294.0,140.0 295.0,137.0 296.0,137.0 297.0,144.0 298.0,142.0 299.0,145.0 300.0,146.0 301.0,148.0 302.0,149.0 303.0,151.0 304.0,152.0 305.0,154.0 306.0,155.0 307.0,156.0 308.0,157.0 309.0,158.0 310.0,159.0 311.0,160.0 312.0,160.0 313.0,161.0 314.0,162.0 315.0,163.0 316.0,163.0 317.0,164.0 318.0,164.0 319.0,165.0 320.0,165.0 321.0,166.0 322.0,166.0 323.0,167.0 324.0,167.0 325.0,167.0 326.0,168.0 327.0,168.0 328.0,169.0 329.0,169.0 330.0,169.0 331.0,170.0 332.0,170.0 333.0,169.0 334.0,167.0 335.0,163.0 336.0,158.0 337.0,161.0 338.0,160.0 339.0,158.0 340.0,162.0 341.0,160.0 342.0,162.0 343.0,162.0 344.0,161.0 345.0,159.0 346.0,156.0 347.0,152.0 348.0,151.0 349.0,149.0 350.0,144.0 351.0,146.0 352.0,144.0 353.0,146.0 354.0,148.0 355.0,146.0 356.0,144.0 357.0,145.0 358.0,145.0 359.0,143.0 360.0,142.0 361.0,138.0 362.0,136.0 363.0,140.0 364.0,141.0 365.0,141.0 366.0,143.0 367.0,146.0 368.0,148.0 369.0,150.0 370.0,151.0 371.0,153.0 372.0,154.0 373.0,155.0 374.0,156.0 375.0,158.0 376.0,159.0 377.0,160.0 378.0,161.0 379.0,162.0 380.0,163.0 381.0,164.0 382.0,164.0 383.0,165.0 384.0,166.0 385.0,166.0 386.0,167.0 387.0,168.0 388.0,168.0 389.0,169.0 390.0,169.0 391.0,170.0 392.0,170.0 393.0,170.0 394.0,170.0 395.0,170.0 396.0,170.0 397.0,171.0 398.0,171.0 399.0,172.0 400.0,172.0 401.0,172.0 402.0,173.0 403.0,173.0 404.0,173.0 405.0,171.0 406.0,169.0 407.0,165.0 408.0,163.0 409.0,165.0 410.0,162.0 411.0,162.0 412.0,161.0 413.0,158.0 414.0,156.0 415.0,157.0 416.0,155.0 417.0,153.0 418.0,149.0 419.0,146.0 420.0,144.0 421.0,142.0 422.0,143.0 423.0,141.0 424.0,139.0 425.0,137.0 426.0,138.0 427.0,139.0 428.0,140.0 429.0,140.0 430.0,142.0 431.0,144.0 432.0,145.0 433.0,147.0 434.0,149.0 435.0,151.0 436.0,152.0 437.0,154.0 438.0,155.0 439.0,157.0 440.0,158.0 441.0,159.0 442.0,161.0 443.0,162.0 444.0,163.0 445.0,164.0 446.0,164.0 447.0,165.0 448.0,166.0 449.0,167.0 450.0,168.0 451.0,169.0 452.0,169.0 453.0,170.0 454.0,170.0 455.0,171.0 456.0,171.0 457.0,172.0 458.0,172.0 459.0,173.0 460.0,173.0 461.0,174.0 462.0,174.0 463.0,174.0 464.0,175.0 465.0,175.0 466.0,174.0 467.0,173.0 468.0,173.0 469.0,172.0 470.0,173.0 471.0,170.0 472.0,170.0 473.0,173.0 474.0,172.0 475.0,172.0 476.0,172.0 477.0,167.0 478.0,163.0 479.0,159.0 480.0,156.0 481.0,155.0 482.0,153.0 483.0,149.0 484.0,147.0 485.0,149.0 486.0,149.0 487.0,145.0 488.0,145.0 489.0,144.0 490.0,139.0 491.0,138.0 492.0,139.0 493.0,138.0 494.0,134.0 495.0,132.0 496.0,136.0 497.0,139.0 498.0,138.0 499.0,140.0 500.0,142.0 501.0,144.0 502.0,146.0 503.0,148.0 504.0,150.0 505.0,151.0 506.0,153.0 507.0,154.0 508.0,155.0 509.0,157.0 510.0,158.0 511.0,159.0 512.0,160.0 513.0,161.0 514.0,162.0 515.0,163.0 516.0,163.0 517.0,164.0 518.0,165.0 519.0,165.0 520.0,166.0 521.0,167.0 522.0,167.0 523.0,168.0 524.0,168.0 525.0,168.0 526.0,169.0 527.0,169.0 528.0,170.0 529.0,170.0 530.0,170.0 531.0,171.0 532.0,171.0 533.0,171.0 534.0,172.0 535.0,172.0 536.0,173.0 537.0,172.0 538.0,167.0 539.0,165.0 540.0,163.0 541.0,162.0 542.0,163.0 543.0,158.0 544.0,158.0 545.0,159.0 546.0,158.0 547.0,155.0 548.0,156.0 549.0,152.0 550.0,148.0 551.0,146.0 552.0,143.0 553.0,142.0 554.0,140.0 555.0,139.0 556.0,138.0 557.0,138.0 558.0,136.0 559.0,133.0 560.0,134.0 561.0,134.0 562.0,132.0 563.0,133.0 564.0,133.0 565.0,130.0 566.0,132.0 567.0,135.0 568.0,136.0 569.0,139.0 570.0,141.0 571.0,143.0 572.0,145.0 573.0,146.0 574.0,147.0 575.0,149.0 576.0,150.0 577.0,152.0 578.0,153.0 579.0,154.0 580.0,155.0 581.0,156.0 582.0,157.0 583.0,158.0 584.0,159.0 585.0,160.0 586.0,160.0 587.0,161.0 588.0,161.0 589.0,162.0 590.0,163.0 591.0,164.0 592.0,164.0 593.0,165.0 594.0,166.0 595.0,166.0 596.0,166.0 597.0,167.0 598.0,167.0 599.0,167.0 600.0,168.0 601.0,168.0 602.0,168.0 603.0,168.0 604.0,168.0 605.0,170.0 606.0,170.0 607.0,170.0 608.0,169.0 609.0,166.0 610.0,163.0 611.0,158.0 612.0,157.0 613.0,157.0 614.0,154.0 615.0,151.0 616.0,150.0 617.0,150.0 618.0,146.0 619.0,143.0 620.0,144.0 621.0,142.0 622.0,140.0 623.0,141.0 624.0,139.0 625.0,137.0 626.0,137.0 627.0,137.0 628.0,136.0 629.0,137.0 630.0,137.0 631.0,138.0 632.0,138.0 633.0,140.0 634.0,140.0 635.0,143.0 636.0,145.0 637.0,147.0 638.0,148.0 639.0,150.0 640.0,151.0 641.0,153.0 642.0,154.0 643.0,155.0 644.0,156.0 645.0,157.0 646.0,158.0 647.0,159.0 648.0,159.0 649.0,160.0 650.0,161.0 651.0,162.0 652.0,162.0 653.0,163.0 654.0,163.0 655.0,164.0 656.0,165.0 657.0,165.0 658.0,166.0 659.0,166.0 660.0,167.0 661.0,167.0 662.0,167.0 663.0,168.0 664.0,168.0 665.0,168.0 666.0,169.0 667.0,169.0 668.0,169.0 669.0,169.0 670.0,166.0 671.0,164.0 672.0,163.0 673.0,162.0 674.0,161.0 675.0,160.0" fill="none" stroke="#000000" />
	<polyline points="76.0,274.0 77.0,268.0 78.0,268.0 79.0,267.0 80.0,265.0 81.0,265.0 82.0,261.0 83.0,252.0 84.0,248.0 85.0,242.0 86.0,238.0 87.0,237.0 88.0,250.0 89.0,252.0 90.0,257.0 91.0,263.0 92.0,269.0 93.0,271.0 94.0,271.0 95.0,280.0 96.0,286.0 97.0,288.0 98.0,290.0 99.0,294.0 100.0,296.0 101.0,296.0 102.0,297.0 103.0,298.0 104.0,299.0 105.0,298.0 106.0,300.0 107.0,300.0 108.0,302.0 109.0,301.0 110.0,301.0 111.0,300.0 112.0,299.0 113.0,298.0 114.0,297.0 115.0,297.0 116.0,298.0 117.0,300.0 118.0,300.0 119.0,302.0 120.0,301.0 121.0,301.0 122.0,302.0 123.0,301.0 124.0,303.0 125.0,303.0 126.0,303.0 127.0,303.0 128.0,303.0 129.0,305.0 130.0,304.0 131.0,304.0 132.0,303.0 133.0,301.0 134.0,300.0 135.0,300.0 136.0,299.0 137.0,300.0 138.0,285.0 139.0,275.0 140.0,264.0 141.0,262.0 142.0,261.0 143.0,264.0 144.0,265.0 145.0,273.0 146.0,280.0 147.0,283.0 148.0,282.0 149.0,280.0 150.0,271.0 151.0,258.0 152.0,254.0 153.0,255.0 154.0,254.0 155.0,253.0 156.0,250.0 157.0,256.0 158.0,263.0 159.0,265.0 160.0,269.0 161.0,271.0 162.0,280.0 163.0,286.0 164.0,289.0 165.0,294.0 166.0,297.0 167.0,299.0 168.0,298.0 169.0,296.0 170.0,293.0 171.0,293.0 172.0,294.0 173.0,295.0 174.0,297.0 175.0,299.0 176.0,303.0 177.0,303.0 178.0,304.0 179.0,304.0 180.0,302.0 181.0,303.0 182.0,303.0 183.0,302.0 184.0,303.0 185.0,303.0 186.0,304.0 187.0,304.0 188.0,304.0 189.0,305.0 190.0,305.0 191.0,305.0 192.0,305.0 193.0,303.0 194.0,303.0 195.0,303.0 196.0,303.0 197.0,303.0 198.0,294.0 199.0,285.0 200.0,276.0 201.0,275.0 202.0,273.0 203.0,275.0 204.0,278.0 205.0,284.0 206.0,293.0 207.0,294.0 208.0,294.0 209.0,291.0 210.0,274.0 211.0,262.0 212.0,260.0 213.0,260.0 214.0,259.0 215.0,258.0 216.0,256.0 217.0,259.0 218.0,267.0 219.0,269.0 220.0,267.0 221.0,266.0 222.0,269.0 223.0,270.0 224.0,268.0 225.0,270.0 226.0,271.0 227.0,273.0 228.0,280.0 229.0,282.0 230.0,285.0 231.0,286.0 232.0,288.0 233.0,291.0 234.0,294.0 235.0,299.0 236.0,303.0 237.0,304.0 238.0,305.0 239.0,305.0 240.0,304.0 241.0,304.0 242.0,304.0 243.0,303.0 244.0,303.0 245.0,303.0 246.0,304.0 247.0,304.0 248.0,304.0 249.0,305.0 250.0,305.0 251.0,305.0 252.0,305.0 253.0,305.0 254.0,305.0 255.0,304.0 256.0,303.0 257.0,303.0 258.0,304.0 259.0,302.0 260.0,300.0 261.0,300.0 262.0,299.0 263.0,299.0 264.0,299.0 265.0,301.0 266.0,302.0 267.0,302.0 268.0,303.0 269.0,303.0 270.0,289.0 271.0,276.0 272.0,271.0 273.0,268.0 274.0,268.0 275.0,267.0 276.0,267.0 277.0,266.0 278.0,272.0 279.0,273.0 280.0,271.0 281.0,269.0 282.0,268.0 283.0,268.0 284.0,265.0 285.0,265.0 286.0,266.0 287.0,266.0 288.0,263.0 289.0,264.0 290.0,264.0 291.0,270.0 292.0,271.0 293.0,275.0 294.0,287.0 295.0,292.0 296.0,292.0 297.0,296.0 298.0,298.0 299.0,301.0 300.0,302.0 301.0,303.0 302.0,303.0 303.0,303.0 304.0,303.0 305.0,303.0 306.0,304.0 307.0,304.0 308.0,304.0 309.0,305.0 310.0,305.0 311.0,305.0 312.0,305.0 313.0,305.0 314.0,305.0 315.0,305.0 316.0,304.0 317.0,304.0 318.0,304.0 319.0,304.0 320.0,304.0 321.0,304.0 322.0,304.0 323.0,304.0 324.0,304.0 325.0,304.0 326.0,304.0 327.0,304.0 328.0,305.0 329.0,305.0 330.0,302.0 331.0,289.0 332.0,281.0 333.0,280.0 334.0,280.0 335.0,280.0 336.0,280.0 337.0,287.0 338.0,296.0 339.0,295.0 340.0,293.0 341.0,291.0 342.0,276.0 343.0,270.0 344.0,264.0 345.0,262.0 346.0,260.0 347.0,260.0 348.0,260.0 349.0,262.0 350.0,262.0 351.0,265.0 352.0,265.0 353.0,266.0 354.0,269.0 355.0,268.0 356.0,266.0 357.0,268.0 358.0,268.0 359.0,270.0 360.0,272.0 361.0,279.0 362.0,285.0 363.0,287.0 364.0,289.0 365.0,293.0 366.0,301.0 367.0,302.0 368.0,304.0 369.0,304.0 370.0,304.0 371.0,304.0 372.0,304.0 373.0,304.0 374.0,304.0 375.0,304.0 376.0,304.0 377.0,304.0 378.0,305.0 379.0,305.0 380.0,305.0 381.0,305.0 382.0,305.0 383.0,305.0 384.0,305.0 385.0,305.0 386.0,305.0 387.0,305.0 388.0,305.0 389.0,305.0 390.0,303.0 391.0,298.0 392.0,298.0 393.0,298.0 394.0,298.0 395.0,298.0 396.0,300.0 397.0,304.0 398.0,304.0 399.0,303.0 400.0,302.0 401.0,302.0 402.0,292.0 403.0,279.0 404.0,272.0 405.0,272.0 406.0,272.0 407.0,271.0 408.0,270.0 409.0,271.0 410.0,273.0 411.0,273.0 412.0,272.0 413.0,272.0 414.0,271.0 415.0,269.0 416.0,268.0 417.0,268.0 418.0,267.0 419.0,267.0 420.0,267.0 421.0,267.0 422.0,268.0 423.0,271.0 424.0,271.0 425.0,273.0 426.0,280.0 427.0,284.0 428.0,286.0 429.0,291.0 430.0,292.0 431.0,295.0 432.0,300.0 433.0,303.0 434.0,303.0 435.0,303.0 436.0,304.0 437.0,304.0 438.0,304.0 439.0,304.0 440.0,305.0 441.0,305.0 442.0,305.0 443.0,305.0 444.0,305.0 445.0,305.0 446.0,305.0 447.0,305.0 448.0,305.0 449.0,305.0 450.0,304.0 451.0,303.0 452.0,303.0 453.0,303.0 454.0,303.0 455.0,303.0 456.0,304.0 457.0,304.0 458.0,304.0 459.0,304.0 460.0,304.0 461.0,304.0 462.0,303.0 463.0,293.0 464.0,289.0 465.0,289.0 466.0,289.0 467.0,287.0 468.0,287.0 469.0,294.0 470.0,294.0 471.0,293.0 472.0,290.0 473.0,291.0 474.0,278.0 475.0,269.0 476.0,268.0 477.0,270.0 478.0,268.0 479.0,268.0 480.0,269.0 481.0,266.0 482.0,266.0 483.0,268.0 484.0,268.0 485.0,268.0 486.0,269.0 487.0,268.0 488.0,268.0 489.0,266.0 490.0,267.0 491.0,267.0 492.0,267.0 493.0,273.0 494.0,280.0 495.0,283.0 496.0,283.0 497.0,288.0 498.0,296.0 499.0,299.0 500.0,301.0 501.0,301.0 502.0,301.0 503.0,302.0 504.0,303.0 505.0,304.0 506.0,304.0 507.0,305.0 508.0,305.0 509.0,304.0 510.0,304.0 511.0,304.0 512.0,304.0 513.0,304.0 514.0,304.0 515.0,304.0 516.0,305.0 517.0,304.0 518.0,304.0 519.0,305.0 520.0,304.0 521.0,304.0 522.0,303.0 523.0,303.0 524.0,303.0 525.0,303.0 526.0,302.0 527.0,301.0 528.0,302.0 529.0,303.0 530.0,303.0 531.0,302.0 532.0,302.0 533.0,302.0 534.0,301.0 535.0,283.0 536.0,278.0 537.0,275.0 538.0,275.0 539.0,274.0 540.0,272.0 541.0,276.0 542.0,280.0 543.0,277.0 544.0,276.0 545.0,276.0 546.0,271.0 547.0,266.0 548.0,265.0 549.0,265.0 550.0,265.0 551.0,267.0 552.0,267.0 553.0,267.0 554.0,266.0 555.0,269.0 556.0,269.0 557.0,270.0 558.0,273.0 559.0,273.0 560.0,272.0 561.0,273.0 562.0,274.0 563.0,275.0 564.0,283.0 565.0,290.0 566.0,296.0 567.0,298.0 568.0,299.0 569.0,300.0 570.0,300.0 571.0,301.0 572.0,302.0 573.0,302.0 574.0,303.0 575.0,304.0 576.0,304.0 577.0,304.0 578.0,304.0 579.0,305.0 580.0,304.0 581.0,304.0 582.0,303.0 583.0,302.0 584.0,303.0 585.0,302.0 586.0,303.0 587.0,302.0 588.0,303.0 589.0,303.0 590.0,304.0 591.0,304.0 592.0,304.0 593.0,304.0 594.0,304.0 595.0,301.0 596.0,301.0 597.0,301.0 598.0,300.0 599.0,300.0 600.0,300.0 601.0,302.0 602.0,302.0 603.0,300.0 604.0,300.0 605.0,299.0 606.0,292.0 607.0,275.0 608.0,272.0 609.0,270.0 610.0,270.0 611.0,269.0 612.0,267.0 613.0,268.0 614.0,269.0 615.0,269.0 616.0,268.0 617.0,269.0 618.0,270.0 619.0,269.0 620.0,270.0 621.0,269.0 622.0,269.0 623.0,269.0 624.0,270.0 625.0,269.0 626.0,274.0 627.0,276.0 628.0,276.0 629.0,278.0 630.0,283.0 631.0,288.0 632.0,288.0 633.0,291.0 634.0,294.0 635.0,297.0 636.0,301.0 637.0,302.0 638.0,303.0 639.0,304.0 640.0,304.0 641.0,303.0 642.0,302.0 643.0,302.0 644.0,302.0 645.0,302.0 646.0,302.0 647.0,301.0 648.0,302.0 649.0,303.0 650.0,303.0 651.0,303.0 652.0,304.0 653.0,304.0 654.0,304.0 655.0,304.0 656.0,304.0 657.0,304.0 658.0,304.0 659.0,304.0 660.0,304.0 661.0,304.0 662.0,304.0 663.0,303.0 664.0,302.0 665.0,302.0 666.0,301.0 667.0,290.0 668.0,286.0 669.0,285.0 670.0,286.0 671.0,284.0 672.0,284.0 673.0,289.0 674.0,291.0 675.0,289.0" fill="none" stroke="#ff0000" />
	<polyline points="76.0,46.0 77.0,54.0 78.0,51.0 79.0,33.0 80.0,30.0 81.0,34.0 82.0,30.0 83.0,18.0 84.0,25.0 85.0,25.0 86.0,24.0 87.0,22.0 88.0,23.0 89.0,26.0 90.0,24.0 91.0,26.0 92.0,33.0 93.0,38.0 94.0,43.0 95.0,41.0 96.0,44.0 97.0,48.0 98.0,56.0 99.0,60.0 100.0,61.0 101.0,65.0 102.0,67.0 103.0,69.0 104.0,72.0 105.0,75.0 106.0,77.0 107.0,80.0 108.0,82.0 109.0,85.0 110.0,87.0 111.0,89.0 112.0,91.0 113.0,93.0 114.0,94.0 115.0,96.0 116.0,98.0 117.0,100.0 118.0,101.0 119.0,103.0 120.0,105.0 121.0,107.0 122.0,108.0 123.0,110.0 124.0,111.0 125.0,113.0 126.0,114.0 127.0,116.0 128.0,117.0 129.0,118.0 130.0,120.0 131.0,121.0 132.0,123.0 133.0,124.0 134.0,124.0 135.0,126.0 136.0,127.0 137.0,122.0 138.0,128.0 139.0,132.0 140.0,120.0 141.0,114.0 142.0,121.0 143.0,123.0 144.0,130.0 145.0,124.0 146.0,121.0 147.0,121.0 148.0,119.0 149.0,117.0 150.0,114.0 151.0,114.0 152.0,109.0 153.0,105.0 154.0,107.0 155.0,103.0 156.0,103.0 157.0,108.0 158.0,109.0 159.0,114.0 160.0,113.0 161.0,112.0 162.0,112.0 163.0,113.0 164.0,120.0 165.0,124.0 166.0,122.0 167.0,130.0 168.0,130.0 169.0,131.0 170.0,132.0 171.0,134.0 172.0,135.0 173.0,137.0 174.0,138.0 175.0,140.0 176.0,141.0 177.0,143.0 178.0,145.0 179.0,146.0 180.0,148.0 181.0,149.0 182.0,150.0 183.0,151.0 184.0,153.0 185.0,154.0 186.0,155.0 187.0,156.0 188.0,158.0 189.0,159.0 190.0,160.0 191.0,161.0 192.0,162.0 193.0,163.0 194.0,164.0 195.0,165.0 196.0,166.0 197.0,167.0 198.0,169.0 199.0,171.0 200.0,166.0 201.0,166.0 202.0,168.0 203.0,167.0 204.0,172.0 205.0,172.0 206.0,170.0 207.0,174.0 208.0,176.0 209.0,175.0 210.0,177.0 211.0,175.0 212.0,169.0 213.0,163.0 214.0,160.0 215.0,161.0 216.0,160.0 217.0,156.0 218.0,156.0 219.0,158.0 220.0,161.0 221.0,157.0 222.0,158.0 223.0,159.0 224.0,158.0 225.0,158.0 226.0,160.0 227.0,159.0 228.0,160.0 229.0,162.0 230.0,162.0 231.0,162.0 232.0,168.0 233.0,170.0 234.0,172.0 235.0,172.0 236.0,173.0 237.0,174.0 238.0,175.0 239.0,177.0 240.0,177.0 241.0,178.0 242.0,179.0 243.0,180.0 244.0,181.0 245.0,182.0 246.0,182.0 247.0,183.0 248.0,185.0 249.0,185.0 250.0,186.0 251.0,187.0 252.0,187.0 253.0,188.0 254.0,189.0 255.0,189.0 256.0,190.0 257.0,191.0 258.0,191.0 259.0,192.0 260.0,192.0 261.0,192.0 262.0,189.0 263.0,190.0 264.0,188.0 265.0,190.0 266.0,193.0 267.0,191.0 268.0,191.0 269.0,194.0 270.0,194.0 271.0,199.0 272.0,182.0 273.0,184.0 274.0,189.0 275.0,191.0 276.0,193.0 277.0,184.0 278.0,186.0 279.0,185.0 280.0,184.0 281.0,184.0 282.0,182.0 283.0,182.0 284.0,176.0 285.0,175.0 286.0,170.0 287.0,168.0 288.0,170.0 289.0,166.0 290.0,167.0 291.0,170.0 292.0,173.0 293.0,172.0 294.0,169.0 295.0,174.0 296.0,180.0 297.0,178.0 298.0,181.0 299.0,180.0 300.0,181.0 301.0,182.0 302.0,183.0 303.0,185.0 304.0,185.0 305.0,186.0 306.0,186.0 307.0,187.0 308.0,188.0 309.0,188.0 310.0,189.0 311.0,190.0 312.0,190.0 313.0,191.0 314.0,191.0 315.0,192.0 316.0,193.0 317.0,193.0 318.0,193.0 319.0,194.0 320.0,195.0 321.0,195.0 322.0,195.0 323.0,196.0 324.0,196.0 325.0,197.0 326.0,197.0 327.0,197.0 328.0,198.0 329.0,198.0 330.0,199.0 331.0,202.0 332.0,199.0 333.0,188.0 334.0,192.0 335.0,197.0 336.0,199.0 337.0,194.0 338.0,191.0 339.0,197.0 340.0,197.0 341.0,199.0 342.0,198.0 343.0,198.0 344.0,191.0 345.0,189.0 346.0,185.0 347.0,188.0 348.0,185.0 349.0,177.0 350.0,179.0 351.0,178.0 352.0,178.0 353.0,176.0 354.0,176.0 355.0,176.0 356.0,177.0 357.0,176.0 358.0,174.0 359.0,175.0 360.0,175.0 361.0,174.0 362.0,176.0 363.0,177.0 364.0,182.0 365.0,187.0 366.0,187.0 367.0,188.0 368.0,188.0 369.0,189.0 370.0,189.0 371.0,191.0 372.0,192.0 373.0,192.0 374.0,193.0 375.0,193.0 376.0,194.0 377.0,195.0 378.0,195.0 379.0,196.0 380.0,196.0 381.0,197.0 382.0,197.0 383.0,198.0 384.0,198.0 385.0,199.0 386.0,199.0 387.0,200.0 388.0,200.0 389.0,200.0 390.0,201.0 391.0,202.0 392.0,200.0 393.0,198.0 394.0,199.0 395.0,202.0 396.0,202.0 397.0,201.0 398.0,201.0 399.0,202.0 400.0,203.0 401.0,203.0 402.0,203.0 403.0,203.0 404.0,195.0 405.0,192.0 406.0,194.0 407.0,194.0 408.0,192.0 409.0,188.0 410.0,190.0 411.0,190.0 412.0,190.0 413.0,187.0 414.0,184.0 415.0,183.0 416.0,182.0 417.0,178.0 418.0,174.0 419.0,175.0 420.0,171.0 421.0,171.0 422.0,170.0 423.0,174.0 424.0,175.0 425.0,174.0 426.0,172.0 427.0,174.0 428.0,177.0 429.0,181.0 430.0,182.0 431.0,183.0 432.0,184.0 433.0,185.0 434.0,186.0 435.0,188.0 436.0,188.0 437.0,189.0 438.0,190.0 439.0,191.0 440.0,191.0 441.0,192.0 442.0,193.0 443.0,194.0 444.0,194.0 445.0,195.0 446.0,195.0 447.0,196.0 448.0,196.0 449.0,197.0 450.0,197.0 451.0,198.0 452.0,198.0 453.0,198.0 454.0,198.0 455.0,199.0 456.0,199.0 457.0,200.0 458.0,200.0 459.0,200.0 460.0,201.0 461.0,201.0 462.0,201.0 463.0,202.0 464.0,202.0 465.0,197.0 466.0,196.0 467.0,199.0 468.0,201.0 469.0,197.0 470.0,195.0 471.0,197.0 472.0,198.0 473.0,195.0 474.0,199.0 475.0,198.0 476.0,192.0 477.0,187.0 478.0,184.0 479.0,184.0 480.0,184.0 481.0,181.0 482.0,178.0 483.0,180.0 484.0,179.0 485.0,177.0 486.0,176.0 487.0,176.0 488.0,177.0 489.0,175.0 490.0,174.0 491.0,172.0 492.0,170.0 493.0,170.0 494.0,172.0 495.0,174.0 496.0,176.0 497.0,180.0 498.0,184.0 499.0,184.0 500.0,184.0 501.0,184.0 502.0,185.0 503.0,187.0 504.0,188.0 505.0,189.0 506.0,189.0 507.0,190.0 508.0,191.0 509.0,192.0 510.0,192.0 511.0,193.0 512.0,193.0 513.0,194.0 514.0,194.0 515.0,195.0 516.0,195.0 517.0,196.0 518.0,196.0 519.0,197.0 520.0,197.0 521.0,197.0 522.0,198.0 523.0,198.0 524.0,198.0 525.0,198.0 526.0,199.0 527.0,199.0 528.0,199.0 529.0,199.0 530.0,200.0 531.0,200.0 532.0,200.0 533.0,201.0 534.0,201.0 535.0,203.0 536.0,202.0 537.0,190.0 538.0,193.0 539.0,197.0 540.0,198.0 541.0,193.0 542.0,190.0 543.0,195.0 544.0,194.0 545.0,192.0 546.0,190.0 547.0,191.0 548.0,186.0 549.0,182.0 550.0,181.0 551.0,179.0 552.0,178.0 553.0,175.0 554.0,173.0 555.0,174.0 556.0,176.0 557.0,174.0 558.0,174.0 559.0,173.0 560.0,175.0 561.0,174.0 562.0,174.0 563.0,175.0 564.0,175.0 565.0,176.0 566.0,177.0 567.0,182.0 568.0,187.0 569.0,186.0 570.0,186.0 571.0,186.0 572.0,187.0 573.0,188.0 574.0,189.0 575.0,190.0 576.0,191.0 577.0,192.0 578.0,192.0 579.0,193.0 580.0,194.0 581.0,194.0 582.0,195.0 583.0,195.0 584.0,196.0 585.0,196.0 586.0,196.0 587.0,197.0 588.0,197.0 589.0,197.0 590.0,198.0 591.0,198.0 592.0,199.0 593.0,199.0 594.0,199.0 595.0,200.0 596.0,200.0 597.0,199.0 598.0,200.0 599.0,200.0 600.0,200.0 601.0,200.0 602.0,201.0 603.0,201.0 604.0,201.0 605.0,201.0 606.0,200.0 607.0,200.0 608.0,195.0 609.0,190.0 610.0,190.0 611.0,192.0 612.0,190.0 613.0,188.0 614.0,185.0 615.0,188.0 616.0,187.0 617.0,183.0 618.0,182.0 619.0,181.0 620.0,180.0 621.0,178.0 622.0,177.0 623.0,177.0 624.0,175.0 625.0,175.0 626.0,175.0 627.0,176.0 628.0,179.0 629.0,178.0 630.0,178.0 631.0,180.0 632.0,184.0 633.0,185.0 634.0,185.0 635.0,186.0 636.0,187.0 637.0,189.0 638.0,189.0 639.0,190.0 640.0,191.0 641.0,192.0 642.0,192.0 643.0,193.0 644.0,193.0 645.0,194.0 646.0,195.0 647.0,195.0 648.0,195.0 649.0,196.0 650.0,197.0 651.0,197.0 652.0,197.0 653.0,198.0 654.0,198.0 655.0,199.0 656.0,199.0 657.0,199.0 658.0,200.0 659.0,200.0 660.0,200.0 661.0,201.0 662.0,201.0 663.0,201.0 664.0,201.0 665.0,201.0 666.0,201.0 667.0,202.0 668.0,200.0 669.0,196.0 670.0,196.0 671.0,198.0 672.0,198.0 673.0,197.0 674.0,195.0 675.0,197.0" fill="none" stroke="#008000" />
	<polyline points="76.0,5.0 676.0,5.0" fill="none" stroke="#6d6d6d" />
	<polyline points="76.0,305.0 676.0,305.0" fill="none" stroke="#6d6d6d" />
	<polyline points="76.0,305.0 76.0,310.0" fill="none" stroke="#6d6d6d" />
	<polyline points="226.0,305.0 226.0,310.0" fill="none" stroke="#6d6d6d" />
	<polyline points="376.0,305.0 376.0,310.0" fill="none" stroke="#6d6d6d" />
	<polyline points="526.0,305.0 526.0,310.0" fill="none" stroke="#6d6d6d" />
	<polyline points="676.0,305.0 676.0,310.0" fill="none" stroke="#6d6d6d" />
	<polyline points="76.0,5.0 76.0,305.0" fill="none" stroke="#6d6d6d" />
	<polyline points="676.0,5.0 676.0,305.0" fill="none" stroke="#6d6d6d" />
	<polyline points="71.0,5.0 76.0,5.0" fill="none" stroke="#6d6d6d" />
	<polyline points="71.0,80.0 76.0,80.0" fill="none" stroke="#6d6d6d" />
	<polyline points="71.0,155.0 76.0,155.0" fill="none" stroke="#6d6d6d" />
	<polyline points="71.0,230.0 76.0,230.0" fill="none" stroke="#6d6d6d" />
	<polyline points="71.0,305.0 76.0,305.0" fill="none" stroke="#6d6d6d" />
	<text x="76.0" y="328.0" fill="#6d6d6d" font-family="Arial" font-size="9pt" text-anchor="middle">1</text>
	<text x="226.0" y="328.0" fill="#6d6d6d" font-family="Arial" font-size="9pt" text-anchor="middle">150</text>
	<text x="376.0" y="328.0" fill="#6d6d6d" font-family="Arial" font-size="9pt" text-anchor="middle">300</text>
	<text x="526.0" y="328.0" fill="#6d6d6d" font-family="Arial" font-size="9pt" text-anchor="middle">450</text>
	<text x="676.0" y="328.0" fill="#6d6d6d" font-family="Arial" font-size="9pt" text-anchor="middle">600</text>
	<text x="66.0" y="10.0" fill="#6d6d6d" font-family="Arial" font-size="9pt" text-anchor="end">8.16e+04</text>
	<text x="66.0" y="85.0" fill="#6d6d6d" font-family="Arial" font-size="9pt" text-anchor="end">6.12e+04</text>
	<text x="66.0" y="160.0" fill="#6d6d6d" font-family="Arial" font-size="9pt" text-anchor="end">4.08e+04</text>
	<text x="66.0" y="235.0" fill="#6d6d6d" font-family="Arial" font-size="9pt" text-anchor="end">2.04e+04</text>
	<text x="66.0" y="310.0" fill="#6d6d6d" font-family="Arial" font-size="9pt" text-anchor="end">0</text>
</svg>
